<svg xmlns="http://www.w3.org/2000/svg" xmlns:xlink="http://www.w3.org/1999/xlink" contentStyleType="text/css" data-diagram-type="CLASS" height="2180px" preserveAspectRatio="none" style="width:1254px;height:2180px;background:#FFFFFF;" version="1.1" viewBox="0 0 1254 2180" width="1254px" zoomAndPan="magnify"><defs/><g><!--cluster MySQL Implementation--><g class="cluster" data-entity="MySQL Implementation" data-source-line="9" data-uid="ent0002" id="cluster_MySQL Implementation"><path d="M16.5,4 L201.7148,4 A3.75,3.75 0 0 1 204.2148,6.5 L211.2148,26.2969 L1071.5,26.2969 A2.5,2.5 0 0 1 1074,28.7969 L1074,1191.5 A2.5,2.5 0 0 1 1071.5,1194 L16.5,1194 A2.5,2.5 0 0 1 14,1191.5 L14,6.5 A2.5,2.5 0 0 1 16.5,4" fill="none" style="stroke:#000000;stroke-width:1.5;"/><line style="stroke:#000000;stroke-width:1.5;" x1="14" x2="211.2148" y1="26.2969" y2="26.2969"/><text fill="#000000" font-family="sans-serif" font-size="14" font-weight="bold" lengthAdjust="spacing" textLength="184.2148" x="18" y="18.9951">MySQL Implementation</text></g><!--cluster Data Access Layer--><g class="cluster" data-entity="Data Access Layer" data-source-line="80" data-uid="ent0011" id="cluster_Data Access Layer"><path d="M659.5,1202 L804.9434,1202 A3.75,3.75 0 0 1 807.4434,1204.5 L814.4434,1224.2969 L1244.5,1224.2969 A2.5,2.5 0 0 1 1247,1226.7969 L1247,2170.5 A2.5,2.5 0 0 1 1244.5,2173 L659.5,2173 A2.5,2.5 0 0 1 657,2170.5 L657,1204.5 A2.5,2.5 0 0 1 659.5,1202" fill="none" style="stroke:#000000;stroke-width:1.5;"/><line style="stroke:#000000;stroke-width:1.5;" x1="657" x2="814.4434" y1="1224.2969" y2="1224.2969"/><text fill="#000000" font-family="sans-serif" font-size="14" font-weight="bold" lengthAdjust="spacing" textLength="144.4434" x="661" y="1216.9951">Data Access Layer</text></g><!--class MySqlDaoBase--><g class="entity" data-entity="MySqlDaoBase" data-source-line="10" data-uid="ent0003" id="entity_MySqlDaoBase"><rect fill="#F1F1F1" height="96.8906" rx="2.5" ry="2.5" style="stroke:#181818;stroke-width:0.5;" width="227.5098" x="838" y="551.5"/><ellipse cx="895.4834" cy="567.5" fill="#A9DCDF" rx="11" ry="11" style="stroke:#181818;stroke-width:1;"/><path d="M895.5928,562.8438 L894.4365,567.9219 L896.7646,567.9219 L895.5928,562.8438 Z M894.1084,560.6094 L897.0928,560.6094 L900.4521,573 L897.999,573 L897.2334,569.9375 L893.9521,569.9375 L893.2021,573 L890.7646,573 L894.1084,560.6094 Z " fill="#000000"/><text fill="#000000" font-family="sans-serif" font-size="14" font-style="italic" lengthAdjust="spacing" textLength="104.043" x="915.9834" y="572.3467">MySqlDaoBase</text><line style="stroke:#181818;stroke-width:0.5;" x1="839" x2="1064.5098" y1="583.5" y2="583.5"/><rect fill="none" height="6" style="stroke:#C82930;stroke-width:1;" width="6" x="846" y="594.1484"/><text fill="#000000" font-family="sans-serif" font-size="14" lengthAdjust="spacing" textLength="170.9121" x="858" y="600.4951">dataSource: DataSource</text><line style="stroke:#181818;stroke-width:0.5;" x1="839" x2="1064.5098" y1="607.7969" y2="607.7969"/><ellipse cx="849" cy="621.4453" fill="#84BE84" rx="3" ry="3" style="stroke:#038048;stroke-width:1;"/><text fill="#000000" font-family="sans-serif" font-size="14" lengthAdjust="spacing" textLength="196.7861" x="858" y="624.792">MySqlDaoBase(DataSource)</text><polygon fill="#FFFF44" points="849,632.7422,853,636.7422,849,640.7422,845,636.7422" style="stroke:#B38D22;stroke-width:1;"/><text fill="#000000" font-family="sans-serif" font-size="14" lengthAdjust="spacing" textLength="201.5098" x="858" y="641.0889">getConnection(): Connection</text></g><!--class MySqlCategoryDao--><g class="entity" data-entity="MySqlCategoryDao" data-source-line="16" data-uid="ent0004" id="entity_MySqlCategoryDao"><rect fill="#F1F1F1" height="154.0469" rx="2.5" ry="2.5" style="stroke:#181818;stroke-width:0.5;" width="273.7822" x="172" y="31"/><ellipse cx="237.6899" cy="51.1328" fill="#ADD1B2" rx="11" ry="11" style="stroke:#181818;stroke-width:1;"/><path d="M240.6587,56.7734 Q240.0806,57.0703 239.4399,57.2109 Q238.7993,57.3672 238.0962,57.3672 Q235.5962,57.3672 234.2681,55.7266 Q232.9556,54.0703 232.9556,50.9453 Q232.9556,47.8203 234.2681,46.1641 Q235.5962,44.5078 238.0962,44.5078 Q238.7993,44.5078 239.4399,44.6641 Q240.0962,44.8203 240.6587,45.1172 L240.6587,47.8359 Q240.0337,47.2578 239.4399,46.9922 Q238.8462,46.7109 238.2212,46.7109 Q236.8774,46.7109 236.1899,47.7891 Q235.5024,48.8516 235.5024,50.9453 Q235.5024,53.0391 236.1899,54.1172 Q236.8774,55.1797 238.2212,55.1797 Q238.8462,55.1797 239.4399,54.9141 Q240.0337,54.6328 240.6587,54.0547 L240.6587,56.7734 Z " fill="#000000"/><text fill="#000000" font-family="sans-serif" font-size="12" font-style="italic" lengthAdjust="spacing" textLength="75.7559" x="287.2632" y="47.1387">&#171;repository&#187;</text><text fill="#000000" font-family="sans-serif" font-size="14" lengthAdjust="spacing" textLength="133.9023" x="258.1899" y="62.9639">MySqlCategoryDao</text><line style="stroke:#181818;stroke-width:0.5;" x1="173" x2="444.7822" y1="71.2656" y2="71.2656"/><line style="stroke:#181818;stroke-width:0.5;" x1="173" x2="444.7822" y1="79.2656" y2="79.2656"/><ellipse cx="183" cy="92.9141" fill="#84BE84" rx="3" ry="3" style="stroke:#038048;stroke-width:1;"/><text fill="#000000" font-family="sans-serif" font-size="14" lengthAdjust="spacing" textLength="226.6455" x="192" y="96.2607">MySqlCategoryDao(DataSource)</text><ellipse cx="183" cy="109.2109" fill="#84BE84" rx="3" ry="3" style="stroke:#038048;stroke-width:1;"/><text fill="#000000" font-family="sans-serif" font-size="14" lengthAdjust="spacing" textLength="247.7822" x="192" y="112.5576">getAllCategories(): List&lt;Category&gt;</text><ellipse cx="183" cy="125.5078" fill="#84BE84" rx="3" ry="3" style="stroke:#038048;stroke-width:1;"/><text fill="#000000" font-family="sans-serif" font-size="14" lengthAdjust="spacing" textLength="156.1875" x="192" y="128.8545">getById(int): Category</text><ellipse cx="183" cy="141.8047" fill="#84BE84" rx="3" ry="3" style="stroke:#038048;stroke-width:1;"/><text fill="#000000" font-family="sans-serif" font-size="14" lengthAdjust="spacing" textLength="192.7393" x="192" y="145.1514">create(Category): Category</text><ellipse cx="183" cy="158.1016" fill="#84BE84" rx="3" ry="3" style="stroke:#038048;stroke-width:1;"/><text fill="#000000" font-family="sans-serif" font-size="14" lengthAdjust="spacing" textLength="190.1484" x="192" y="161.4482">update(int, Category): void</text><ellipse cx="183" cy="174.3984" fill="#84BE84" rx="3" ry="3" style="stroke:#038048;stroke-width:1;"/><text fill="#000000" font-family="sans-serif" font-size="14" lengthAdjust="spacing" textLength="112.0752" x="192" y="177.7451">delete(int): void</text></g><!--class MySqlProductDao--><g class="entity" data-entity="MySqlProductDao" data-source-line="25" data-uid="ent0005" id="entity_MySqlProductDao"><rect fill="#F1F1F1" height="186.6406" rx="2.5" ry="2.5" style="stroke:#181818;stroke-width:0.5;" width="573.6885" x="22" y="793.5"/><ellipse cx="242.7632" cy="813.6328" fill="#ADD1B2" rx="11" ry="11" style="stroke:#181818;stroke-width:1;"/><path d="M245.7319,819.2734 Q245.1538,819.5703 244.5132,819.7109 Q243.8726,819.8672 243.1694,819.8672 Q240.6694,819.8672 239.3413,818.2266 Q238.0288,816.5703 238.0288,813.4453 Q238.0288,810.3203 239.3413,808.6641 Q240.6694,807.0078 243.1694,807.0078 Q243.8726,807.0078 244.5132,807.1641 Q245.1694,807.3203 245.7319,807.6172 L245.7319,810.3359 Q245.1069,809.7578 244.5132,809.4922 Q243.9194,809.2109 243.2944,809.2109 Q241.9507,809.2109 241.2632,810.2891 Q240.5757,811.3516 240.5757,813.4453 Q240.5757,815.5391 241.2632,816.6172 Q241.9507,817.6797 243.2944,817.6797 Q243.9194,817.6797 244.5132,817.4141 Q245.1069,817.1328 245.7319,816.5547 L245.7319,819.2734 Z " fill="#000000"/><text fill="#000000" font-family="sans-serif" font-size="12" font-style="italic" lengthAdjust="spacing" textLength="75.7559" x="287.2163" y="809.6387">&#171;repository&#187;</text><text fill="#000000" font-family="sans-serif" font-size="14" lengthAdjust="spacing" textLength="123.6621" x="263.2632" y="825.4639">MySqlProductDao</text><line style="stroke:#181818;stroke-width:0.5;" x1="23" x2="594.6885" y1="833.7656" y2="833.7656"/><line style="stroke:#181818;stroke-width:0.5;" x1="23" x2="594.6885" y1="841.7656" y2="841.7656"/><ellipse cx="33" cy="855.4141" fill="#84BE84" rx="3" ry="3" style="stroke:#038048;stroke-width:1;"/><text fill="#000000" font-family="sans-serif" font-size="14" lengthAdjust="spacing" textLength="216.4053" x="42" y="858.7607">MySqlProductDao(DataSource)</text><ellipse cx="33" cy="871.7109" fill="#84BE84" rx="3" ry="3" style="stroke:#038048;stroke-width:1;"/><text fill="#000000" font-family="sans-serif" font-size="14" lengthAdjust="spacing" textLength="547.6885" x="42" y="875.0576">search(Integer, BigDecimal, BigDecimal, String, String, String): List&lt;Product&gt;</text><ellipse cx="33" cy="888.0078" fill="#84BE84" rx="3" ry="3" style="stroke:#038048;stroke-width:1;"/><text fill="#000000" font-family="sans-serif" font-size="14" lengthAdjust="spacing" textLength="255.4043" x="42" y="891.3545">listByCategoryId(int): List&lt;Product&gt;</text><ellipse cx="33" cy="904.3047" fill="#84BE84" rx="3" ry="3" style="stroke:#038048;stroke-width:1;"/><text fill="#000000" font-family="sans-serif" font-size="14" lengthAdjust="spacing" textLength="145.9473" x="42" y="907.6514">getById(int): Product</text><ellipse cx="33" cy="920.6016" fill="#84BE84" rx="3" ry="3" style="stroke:#038048;stroke-width:1;"/><text fill="#000000" font-family="sans-serif" font-size="14" lengthAdjust="spacing" textLength="172.2588" x="42" y="923.9482">create(Product): Product</text><ellipse cx="33" cy="936.8984" fill="#84BE84" rx="3" ry="3" style="stroke:#038048;stroke-width:1;"/><text fill="#000000" font-family="sans-serif" font-size="14" lengthAdjust="spacing" textLength="179.9082" x="42" y="940.2451">update(int, Product): void</text><ellipse cx="33" cy="953.1953" fill="#84BE84" rx="3" ry="3" style="stroke:#038048;stroke-width:1;"/><text fill="#000000" font-family="sans-serif" font-size="14" lengthAdjust="spacing" textLength="112.0752" x="42" y="956.542">delete(int): void</text><polygon fill="#FFFF44" points="33,964.4922,37,968.4922,33,972.4922,29,968.4922" style="stroke:#B38D22;stroke-width:1;"/><text fill="#000000" font-family="sans-serif" font-size="14" lengthAdjust="spacing" text-decoration="underline" textLength="201.5234" x="42" y="972.8389">mapRow(ResultSet): Product</text></g><!--class MySqlUserDao--><g class="entity" data-entity="MySqlUserDao" data-source-line="36" data-uid="ent0006" id="entity_MySqlUserDao"><rect fill="#F1F1F1" height="186.6406" rx="2.5" ry="2.5" style="stroke:#181818;stroke-width:0.5;" width="233.874" x="192" y="203.5"/><ellipse cx="253.7559" cy="223.6328" fill="#ADD1B2" rx="11" ry="11" style="stroke:#181818;stroke-width:1;"/><path d="M256.7246,229.2734 Q256.1465,229.5703 255.5059,229.7109 Q254.8652,229.8672 254.1621,229.8672 Q251.6621,229.8672 250.334,228.2266 Q249.0215,226.5703 249.0215,223.4453 Q249.0215,220.3203 250.334,218.6641 Q251.6621,217.0078 254.1621,217.0078 Q254.8652,217.0078 255.5059,217.1641 Q256.1621,217.3203 256.7246,217.6172 L256.7246,220.3359 Q256.0996,219.7578 255.5059,219.4922 Q254.9121,219.2109 254.2871,219.2109 Q252.9434,219.2109 252.2559,220.2891 Q251.5684,221.3516 251.5684,223.4453 Q251.5684,225.5391 252.2559,226.6172 Q252.9434,227.6797 254.2871,227.6797 Q254.9121,227.6797 255.5059,227.4141 Q256.0996,227.1328 256.7246,226.5547 L256.7246,229.2734 Z " fill="#000000"/><text fill="#000000" font-family="sans-serif" font-size="12" font-style="italic" lengthAdjust="spacing" textLength="75.7559" x="287.3091" y="219.6387">&#171;repository&#187;</text><text fill="#000000" font-family="sans-serif" font-size="14" lengthAdjust="spacing" textLength="101.8623" x="274.2559" y="235.4639">MySqlUserDao</text><line style="stroke:#181818;stroke-width:0.5;" x1="193" x2="424.874" y1="243.7656" y2="243.7656"/><line style="stroke:#181818;stroke-width:0.5;" x1="193" x2="424.874" y1="251.7656" y2="251.7656"/><ellipse cx="203" cy="265.4141" fill="#84BE84" rx="3" ry="3" style="stroke:#038048;stroke-width:1;"/><text fill="#000000" font-family="sans-serif" font-size="14" lengthAdjust="spacing" textLength="194.6055" x="212" y="268.7607">MySqlUserDao(DataSource)</text><ellipse cx="203" cy="281.7109" fill="#84BE84" rx="3" ry="3" style="stroke:#038048;stroke-width:1;"/><text fill="#000000" font-family="sans-serif" font-size="14" lengthAdjust="spacing" textLength="128.6592" x="212" y="285.0576">create(User): User</text><ellipse cx="203" cy="298.0078" fill="#84BE84" rx="3" ry="3" style="stroke:#038048;stroke-width:1;"/><text fill="#000000" font-family="sans-serif" font-size="14" lengthAdjust="spacing" textLength="140.2803" x="212" y="301.3545">getAll(): List&lt;User&gt;</text><ellipse cx="203" cy="314.3047" fill="#84BE84" rx="3" ry="3" style="stroke:#038048;stroke-width:1;"/><text fill="#000000" font-family="sans-serif" font-size="14" lengthAdjust="spacing" textLength="156.0576" x="212" y="317.6514">getUserById(int): User</text><ellipse cx="203" cy="330.6016" fill="#84BE84" rx="3" ry="3" style="stroke:#038048;stroke-width:1;"/><text fill="#000000" font-family="sans-serif" font-size="14" lengthAdjust="spacing" textLength="207.874" x="212" y="333.9482">getByUserName(String): User</text><ellipse cx="203" cy="346.8984" fill="#84BE84" rx="3" ry="3" style="stroke:#038048;stroke-width:1;"/><text fill="#000000" font-family="sans-serif" font-size="14" lengthAdjust="spacing" textLength="205.6318" x="212" y="350.2451">getIdByUsername(String): int</text><ellipse cx="203" cy="363.1953" fill="#84BE84" rx="3" ry="3" style="stroke:#038048;stroke-width:1;"/><text fill="#000000" font-family="sans-serif" font-size="14" lengthAdjust="spacing" textLength="158.71" x="212" y="366.542">exists(String): boolean</text><rect fill="#F24D5C" height="6" style="stroke:#C82930;stroke-width:1;" width="6" x="200" y="376.4922"/><text fill="#000000" font-family="sans-serif" font-size="14" lengthAdjust="spacing" textLength="179.7236" x="212" y="382.8389">mapRow(ResultSet): User</text></g><!--class MySqlProfileDao--><g class="entity" data-entity="MySqlProfileDao" data-source-line="47" data-uid="ent0007" id="entity_MySqlProfileDao"><rect fill="#F1F1F1" height="121.4531" rx="2.5" ry="2.5" style="stroke:#181818;stroke-width:0.5;" width="232.7803" x="192.5" y="408.5"/><ellipse cx="247.6216" cy="428.6328" fill="#ADD1B2" rx="11" ry="11" style="stroke:#181818;stroke-width:1;"/><path d="M250.5903,434.2734 Q250.0122,434.5703 249.3716,434.7109 Q248.731,434.8672 248.0278,434.8672 Q245.5278,434.8672 244.1997,433.2266 Q242.8872,431.5703 242.8872,428.4453 Q242.8872,425.3203 244.1997,423.6641 Q245.5278,422.0078 248.0278,422.0078 Q248.731,422.0078 249.3716,422.1641 Q250.0278,422.3203 250.5903,422.6172 L250.5903,425.3359 Q249.9653,424.7578 249.3716,424.4922 Q248.7778,424.2109 248.1528,424.2109 Q246.8091,424.2109 246.1216,425.2891 Q245.4341,426.3516 245.4341,428.4453 Q245.4341,430.5391 246.1216,431.6172 Q246.8091,432.6797 248.1528,432.6797 Q248.7778,432.6797 249.3716,432.4141 Q249.9653,432.1328 250.5903,431.5547 L250.5903,434.2734 Z " fill="#000000"/><text fill="#000000" font-family="sans-serif" font-size="12" font-style="italic" lengthAdjust="spacing" textLength="75.7559" x="287.2622" y="424.6387">&#171;repository&#187;</text><text fill="#000000" font-family="sans-serif" font-size="14" lengthAdjust="spacing" textLength="114.0371" x="268.1216" y="440.4639">MySqlProfileDao</text><line style="stroke:#181818;stroke-width:0.5;" x1="193.5" x2="424.2803" y1="448.7656" y2="448.7656"/><line style="stroke:#181818;stroke-width:0.5;" x1="193.5" x2="424.2803" y1="456.7656" y2="456.7656"/><ellipse cx="203.5" cy="470.4141" fill="#84BE84" rx="3" ry="3" style="stroke:#038048;stroke-width:1;"/><text fill="#000000" font-family="sans-serif" font-size="14" lengthAdjust="spacing" textLength="206.7803" x="212.5" y="473.7607">MySqlProfileDao(DataSource)</text><ellipse cx="203.5" cy="486.7109" fill="#84BE84" rx="3" ry="3" style="stroke:#038048;stroke-width:1;"/><text fill="#000000" font-family="sans-serif" font-size="14" lengthAdjust="spacing" textLength="153.0088" x="212.5" y="490.0576">create(Profile): Profile</text><ellipse cx="203.5" cy="503.0078" fill="#84BE84" rx="3" ry="3" style="stroke:#038048;stroke-width:1;"/><text fill="#000000" font-family="sans-serif" font-size="14" lengthAdjust="spacing" textLength="168.2324" x="212.5" y="506.3545">getByUserId(int): Profile</text><ellipse cx="203.5" cy="519.3047" fill="#84BE84" rx="3" ry="3" style="stroke:#038048;stroke-width:1;"/><text fill="#000000" font-family="sans-serif" font-size="14" lengthAdjust="spacing" textLength="157.5889" x="212.5" y="522.6514">update(Profile): Profile</text></g><!--class MySqlOrderDao--><g class="entity" data-entity="MySqlOrderDao" data-source-line="54" data-uid="ent0008" id="entity_MySqlOrderDao"><rect fill="#F1F1F1" height="105.1563" rx="2.5" ry="2.5" style="stroke:#181818;stroke-width:0.5;" width="238.1123" x="190" y="547.5"/><ellipse cx="249.8145" cy="567.6328" fill="#ADD1B2" rx="11" ry="11" style="stroke:#181818;stroke-width:1;"/><path d="M252.7832,573.2734 Q252.2051,573.5703 251.5645,573.7109 Q250.9238,573.8672 250.2207,573.8672 Q247.7207,573.8672 246.3926,572.2266 Q245.0801,570.5703 245.0801,567.4453 Q245.0801,564.3203 246.3926,562.6641 Q247.7207,561.0078 250.2207,561.0078 Q250.9238,561.0078 251.5645,561.1641 Q252.2207,561.3203 252.7832,561.6172 L252.7832,564.3359 Q252.1582,563.7578 251.5645,563.4922 Q250.9707,563.2109 250.3457,563.2109 Q249.002,563.2109 248.3145,564.2891 Q247.627,565.3516 247.627,567.4453 Q247.627,569.5391 248.3145,570.6172 Q249.002,571.6797 250.3457,571.6797 Q250.9707,571.6797 251.5645,571.4141 Q252.1582,571.1328 252.7832,570.5547 L252.7832,573.2734 Z " fill="#000000"/><text fill="#000000" font-family="sans-serif" font-size="12" font-style="italic" lengthAdjust="spacing" textLength="75.7559" x="287.4282" y="563.6387">&#171;repository&#187;</text><text fill="#000000" font-family="sans-serif" font-size="14" lengthAdjust="spacing" textLength="109.9834" x="270.3145" y="579.4639">MySqlOrderDao</text><line style="stroke:#181818;stroke-width:0.5;" x1="191" x2="427.1123" y1="587.7656" y2="587.7656"/><line style="stroke:#181818;stroke-width:0.5;" x1="191" x2="427.1123" y1="595.7656" y2="595.7656"/><ellipse cx="201" cy="609.4141" fill="#84BE84" rx="3" ry="3" style="stroke:#038048;stroke-width:1;"/><text fill="#000000" font-family="sans-serif" font-size="14" lengthAdjust="spacing" textLength="202.7266" x="210" y="612.7607">MySqlOrderDao(DataSource)</text><ellipse cx="201" cy="625.7109" fill="#84BE84" rx="3" ry="3" style="stroke:#038048;stroke-width:1;"/><text fill="#000000" font-family="sans-serif" font-size="14" lengthAdjust="spacing" textLength="144.9014" x="210" y="629.0576">create(Order): Order</text><ellipse cx="201" cy="642.0078" fill="#84BE84" rx="3" ry="3" style="stroke:#038048;stroke-width:1;"/><text fill="#000000" font-family="sans-serif" font-size="14" lengthAdjust="spacing" textLength="212.1123" x="210" y="645.3545">getByUserId(int): List&lt;Order&gt;</text></g><!--class MySqlOrderItemDao--><g class="entity" data-entity="MySqlOrderItemDao" data-source-line="60" data-uid="ent0009" id="entity_MySqlOrderItemDao"><rect fill="#F1F1F1" height="105.1563" rx="2.5" ry="2.5" style="stroke:#181818;stroke-width:0.5;" width="278.1025" x="170" y="670.5"/><ellipse cx="233.875" cy="690.6328" fill="#ADD1B2" rx="11" ry="11" style="stroke:#181818;stroke-width:1;"/><path d="M236.8438,696.2734 Q236.2656,696.5703 235.625,696.7109 Q234.9844,696.8672 234.2813,696.8672 Q231.7813,696.8672 230.4531,695.2266 Q229.1406,693.5703 229.1406,690.4453 Q229.1406,687.3203 230.4531,685.6641 Q231.7813,684.0078 234.2813,684.0078 Q234.9844,684.0078 235.625,684.1641 Q236.2813,684.3203 236.8438,684.6172 L236.8438,687.3359 Q236.2188,686.7578 235.625,686.4922 Q235.0313,686.2109 234.4063,686.2109 Q233.0625,686.2109 232.375,687.2891 Q231.6875,688.3516 231.6875,690.4453 Q231.6875,692.5391 232.375,693.6172 Q233.0625,694.6797 234.4063,694.6797 Q235.0313,694.6797 235.625,694.4141 Q236.2188,694.1328 236.8438,693.5547 L236.8438,696.2734 Z " fill="#000000"/><text fill="#000000" font-family="sans-serif" font-size="12" font-style="italic" lengthAdjust="spacing" textLength="75.7559" x="287.4233" y="686.6387">&#171;repository&#187;</text><text fill="#000000" font-family="sans-serif" font-size="14" lengthAdjust="spacing" textLength="141.8525" x="254.375" y="702.4639">MySqlOrderItemDao</text><line style="stroke:#181818;stroke-width:0.5;" x1="171" x2="447.1025" y1="710.7656" y2="710.7656"/><line style="stroke:#181818;stroke-width:0.5;" x1="171" x2="447.1025" y1="718.7656" y2="718.7656"/><ellipse cx="181" cy="732.4141" fill="#84BE84" rx="3" ry="3" style="stroke:#038048;stroke-width:1;"/><text fill="#000000" font-family="sans-serif" font-size="14" lengthAdjust="spacing" textLength="234.5957" x="190" y="735.7607">MySqlOrderItemDao(DataSource)</text><ellipse cx="181" cy="748.7109" fill="#84BE84" rx="3" ry="3" style="stroke:#038048;stroke-width:1;"/><text fill="#000000" font-family="sans-serif" font-size="14" lengthAdjust="spacing" textLength="166.3662" x="190" y="752.0576">create(OrderItem): void</text><ellipse cx="181" cy="765.0078" fill="#84BE84" rx="3" ry="3" style="stroke:#038048;stroke-width:1;"/><text fill="#000000" font-family="sans-serif" font-size="14" lengthAdjust="spacing" textLength="252.1025" x="190" y="768.3545">getByOrderId(int): List&lt;OrderItem&gt;</text></g><!--class MySqlShoppingCartDao--><g class="entity" data-entity="MySqlShoppingCartDao" data-source-line="66" data-uid="ent0010" id="entity_MySqlShoppingCartDao"><rect fill="#F1F1F1" height="186.6406" rx="2.5" ry="2.5" style="stroke:#181818;stroke-width:0.5;" width="383.335" x="117.5" y="998.5"/><ellipse cx="222.2676" cy="1018.6328" fill="#ADD1B2" rx="11" ry="11" style="stroke:#181818;stroke-width:1;"/><path d="M225.2363,1024.2734 Q224.6582,1024.5703 224.0176,1024.7109 Q223.377,1024.8672 222.6738,1024.8672 Q220.1738,1024.8672 218.8457,1023.2266 Q217.5332,1021.5703 217.5332,1018.4453 Q217.5332,1015.3203 218.8457,1013.6641 Q220.1738,1012.0078 222.6738,1012.0078 Q223.377,1012.0078 224.0176,1012.1641 Q224.6738,1012.3203 225.2363,1012.6172 L225.2363,1015.3359 Q224.6113,1014.7578 224.0176,1014.4922 Q223.4238,1014.2109 222.7988,1014.2109 Q221.4551,1014.2109 220.7676,1015.2891 Q220.0801,1016.3516 220.0801,1018.4453 Q220.0801,1020.5391 220.7676,1021.6172 Q221.4551,1022.6797 222.7988,1022.6797 Q223.4238,1022.6797 224.0176,1022.4141 Q224.6113,1022.1328 225.2363,1021.5547 L225.2363,1024.2734 Z " fill="#000000"/><text fill="#000000" font-family="sans-serif" font-size="12" font-style="italic" lengthAdjust="spacing" textLength="75.7559" x="287.5396" y="1014.6387">&#171;repository&#187;</text><text fill="#000000" font-family="sans-serif" font-size="14" lengthAdjust="spacing" textLength="165.2998" x="242.7676" y="1030.4639">MySqlShoppingCartDao</text><line style="stroke:#181818;stroke-width:0.5;" x1="118.5" x2="499.835" y1="1038.7656" y2="1038.7656"/><rect fill="none" height="6" style="stroke:#C82930;stroke-width:1;" width="6" x="125.5" y="1049.4141"/><text fill="#000000" font-family="sans-serif" font-size="14" lengthAdjust="spacing" textLength="172.8809" x="137.5" y="1055.7607">productDao: ProductDao</text><line style="stroke:#181818;stroke-width:0.5;" x1="118.5" x2="499.835" y1="1063.0625" y2="1063.0625"/><ellipse cx="128.5" cy="1076.7109" fill="#84BE84" rx="3" ry="3" style="stroke:#038048;stroke-width:1;"/><text fill="#000000" font-family="sans-serif" font-size="14" lengthAdjust="spacing" textLength="348.5781" x="137.5" y="1080.0576">MySqlShoppingCartDao(DataSource, ProductDao)</text><ellipse cx="128.5" cy="1093.0078" fill="#84BE84" rx="3" ry="3" style="stroke:#038048;stroke-width:1;"/><text fill="#000000" font-family="sans-serif" font-size="14" lengthAdjust="spacing" textLength="219.4951" x="137.5" y="1096.3545">getByUserId(int): ShoppingCart</text><ellipse cx="128.5" cy="1109.3047" fill="#84BE84" rx="3" ry="3" style="stroke:#038048;stroke-width:1;"/><text fill="#000000" font-family="sans-serif" font-size="14" lengthAdjust="spacing" textLength="357.335" x="137.5" y="1112.6514">getAllItems(int): Map&lt;Integer, ShoppingCartItem&gt;</text><ellipse cx="128.5" cy="1125.6016" fill="#84BE84" rx="3" ry="3" style="stroke:#038048;stroke-width:1;"/><text fill="#000000" font-family="sans-serif" font-size="14" lengthAdjust="spacing" textLength="175.1846" x="137.5" y="1128.9482">addProduct(int, int): void</text><ellipse cx="128.5" cy="1141.8984" fill="#84BE84" rx="3" ry="3" style="stroke:#038048;stroke-width:1;"/><text fill="#000000" font-family="sans-serif" font-size="14" lengthAdjust="spacing" textLength="312.1563" x="137.5" y="1145.2451">updateProductQuantity(int, int, int): boolean</text><ellipse cx="128.5" cy="1158.1953" fill="#84BE84" rx="3" ry="3" style="stroke:#038048;stroke-width:1;"/><text fill="#000000" font-family="sans-serif" font-size="14" lengthAdjust="spacing" textLength="228.6484" x="137.5" y="1161.542">removeProduct(int, int): boolean</text><ellipse cx="128.5" cy="1174.4922" fill="#84BE84" rx="3" ry="3" style="stroke:#038048;stroke-width:1;"/><text fill="#000000" font-family="sans-serif" font-size="14" lengthAdjust="spacing" textLength="112.0752" x="137.5" y="1177.8389">delete(int): void</text></g><!--class CategoryDao--><g class="entity" data-entity="CategoryDao" data-source-line="81" data-uid="ent0012" id="entity_CategoryDao"><rect fill="#F1F1F1" height="129.4844" rx="2.5" ry="2.5" style="stroke:#181818;stroke-width:0.5;" width="273.7822" x="815" y="1229.5"/><ellipse cx="901.7036" cy="1245.5" fill="#B4A7E5" rx="11" ry="11" style="stroke:#181818;stroke-width:1;"/><path d="M897.6255,1241.2656 L897.6255,1239.1094 L905.0161,1239.1094 L905.0161,1241.2656 L902.5474,1241.2656 L902.5474,1249.3438 L905.0161,1249.3438 L905.0161,1251.5 L897.6255,1251.5 L897.6255,1249.3438 L900.0942,1249.3438 L900.0942,1241.2656 L897.6255,1241.2656 Z " fill="#000000"/><text fill="#000000" font-family="sans-serif" font-size="14" font-style="italic" lengthAdjust="spacing" textLength="91.875" x="922.2036" y="1250.3467">CategoryDao</text><line style="stroke:#181818;stroke-width:0.5;" x1="816" x2="1087.7822" y1="1261.5" y2="1261.5"/><line style="stroke:#181818;stroke-width:0.5;" x1="816" x2="1087.7822" y1="1269.5" y2="1269.5"/><ellipse cx="826" cy="1283.1484" fill="#84BE84" rx="3" ry="3" style="stroke:#038048;stroke-width:1;"/><text fill="#000000" font-family="sans-serif" font-size="14" lengthAdjust="spacing" textLength="247.7822" x="835" y="1286.4951">getAllCategories(): List&lt;Category&gt;</text><ellipse cx="826" cy="1299.4453" fill="#84BE84" rx="3" ry="3" style="stroke:#038048;stroke-width:1;"/><text fill="#000000" font-family="sans-serif" font-size="14" lengthAdjust="spacing" textLength="156.1875" x="835" y="1302.792">getById(int): Category</text><ellipse cx="826" cy="1315.7422" fill="#84BE84" rx="3" ry="3" style="stroke:#038048;stroke-width:1;"/><text fill="#000000" font-family="sans-serif" font-size="14" lengthAdjust="spacing" textLength="192.7393" x="835" y="1319.0889">create(Category): Category</text><ellipse cx="826" cy="1332.0391" fill="#84BE84" rx="3" ry="3" style="stroke:#038048;stroke-width:1;"/><text fill="#000000" font-family="sans-serif" font-size="14" lengthAdjust="spacing" textLength="190.1484" x="835" y="1335.3857">update(int, Category): void</text><ellipse cx="826" cy="1348.3359" fill="#84BE84" rx="3" ry="3" style="stroke:#038048;stroke-width:1;"/><text fill="#000000" font-family="sans-serif" font-size="14" lengthAdjust="spacing" textLength="112.0752" x="835" y="1351.6826">delete(int): void</text></g><!--class ProductDao--><g class="entity" data-entity="ProductDao" data-source-line="89" data-uid="ent0013" id="entity_ProductDao"><rect fill="#F1F1F1" height="145.7813" rx="2.5" ry="2.5" style="stroke:#181818;stroke-width:0.5;" width="573.6885" x="665" y="1855"/><ellipse cx="906.7769" cy="1871" fill="#B4A7E5" rx="11" ry="11" style="stroke:#181818;stroke-width:1;"/><path d="M902.6987,1866.7656 L902.6987,1864.6094 L910.0894,1864.6094 L910.0894,1866.7656 L907.6206,1866.7656 L907.6206,1874.8438 L910.0894,1874.8438 L910.0894,1877 L902.6987,1877 L902.6987,1874.8438 L905.1675,1874.8438 L905.1675,1866.7656 L902.6987,1866.7656 Z " fill="#000000"/><text fill="#000000" font-family="sans-serif" font-size="14" font-style="italic" lengthAdjust="spacing" textLength="81.6348" x="927.2769" y="1875.8467">ProductDao</text><line style="stroke:#181818;stroke-width:0.5;" x1="666" x2="1237.6885" y1="1887" y2="1887"/><line style="stroke:#181818;stroke-width:0.5;" x1="666" x2="1237.6885" y1="1895" y2="1895"/><ellipse cx="676" cy="1908.6484" fill="#84BE84" rx="3" ry="3" style="stroke:#038048;stroke-width:1;"/><text fill="#000000" font-family="sans-serif" font-size="14" lengthAdjust="spacing" textLength="547.6885" x="685" y="1911.9951">search(Integer, BigDecimal, BigDecimal, String, String, String): List&lt;Product&gt;</text><ellipse cx="676" cy="1924.9453" fill="#84BE84" rx="3" ry="3" style="stroke:#038048;stroke-width:1;"/><text fill="#000000" font-family="sans-serif" font-size="14" lengthAdjust="spacing" textLength="255.4043" x="685" y="1928.292">listByCategoryId(int): List&lt;Product&gt;</text><ellipse cx="676" cy="1941.2422" fill="#84BE84" rx="3" ry="3" style="stroke:#038048;stroke-width:1;"/><text fill="#000000" font-family="sans-serif" font-size="14" lengthAdjust="spacing" textLength="145.9473" x="685" y="1944.5889">getById(int): Product</text><ellipse cx="676" cy="1957.5391" fill="#84BE84" rx="3" ry="3" style="stroke:#038048;stroke-width:1;"/><text fill="#000000" font-family="sans-serif" font-size="14" lengthAdjust="spacing" textLength="172.2588" x="685" y="1960.8857">create(Product): Product</text><ellipse cx="676" cy="1973.8359" fill="#84BE84" rx="3" ry="3" style="stroke:#038048;stroke-width:1;"/><text fill="#000000" font-family="sans-serif" font-size="14" lengthAdjust="spacing" textLength="179.9082" x="685" y="1977.1826">update(int, Product): void</text><ellipse cx="676" cy="1990.1328" fill="#84BE84" rx="3" ry="3" style="stroke:#038048;stroke-width:1;"/><text fill="#000000" font-family="sans-serif" font-size="14" lengthAdjust="spacing" textLength="112.0752" x="685" y="1993.4795">delete(int): void</text></g><!--class UserDao--><g class="entity" data-entity="UserDao" data-source-line="98" data-uid="ent0014" id="entity_UserDao"><rect fill="#F1F1F1" height="145.7813" rx="2.5" ry="2.5" style="stroke:#181818;stroke-width:0.5;" width="233.874" x="835" y="1377"/><ellipse cx="917.7695" cy="1393" fill="#B4A7E5" rx="11" ry="11" style="stroke:#181818;stroke-width:1;"/><path d="M913.6914,1388.7656 L913.6914,1386.6094 L921.082,1386.6094 L921.082,1388.7656 L918.6133,1388.7656 L918.6133,1396.8438 L921.082,1396.8438 L921.082,1399 L913.6914,1399 L913.6914,1396.8438 L916.1602,1396.8438 L916.1602,1388.7656 L913.6914,1388.7656 Z " fill="#000000"/><text fill="#000000" font-family="sans-serif" font-size="14" font-style="italic" lengthAdjust="spacing" textLength="59.835" x="938.2695" y="1397.8467">UserDao</text><line style="stroke:#181818;stroke-width:0.5;" x1="836" x2="1067.874" y1="1409" y2="1409"/><line style="stroke:#181818;stroke-width:0.5;" x1="836" x2="1067.874" y1="1417" y2="1417"/><ellipse cx="846" cy="1430.6484" fill="#84BE84" rx="3" ry="3" style="stroke:#038048;stroke-width:1;"/><text fill="#000000" font-family="sans-serif" font-size="14" lengthAdjust="spacing" textLength="140.2803" x="855" y="1433.9951">getAll(): List&lt;User&gt;</text><ellipse cx="846" cy="1446.9453" fill="#84BE84" rx="3" ry="3" style="stroke:#038048;stroke-width:1;"/><text fill="#000000" font-family="sans-serif" font-size="14" lengthAdjust="spacing" textLength="156.0576" x="855" y="1450.292">getUserById(int): User</text><ellipse cx="846" cy="1463.2422" fill="#84BE84" rx="3" ry="3" style="stroke:#038048;stroke-width:1;"/><text fill="#000000" font-family="sans-serif" font-size="14" lengthAdjust="spacing" textLength="207.874" x="855" y="1466.5889">getByUserName(String): User</text><ellipse cx="846" cy="1479.5391" fill="#84BE84" rx="3" ry="3" style="stroke:#038048;stroke-width:1;"/><text fill="#000000" font-family="sans-serif" font-size="14" lengthAdjust="spacing" textLength="205.6318" x="855" y="1482.8857">getIdByUsername(String): int</text><ellipse cx="846" cy="1495.8359" fill="#84BE84" rx="3" ry="3" style="stroke:#038048;stroke-width:1;"/><text fill="#000000" font-family="sans-serif" font-size="14" lengthAdjust="spacing" textLength="128.6592" x="855" y="1499.1826">create(User): User</text><ellipse cx="846" cy="1512.1328" fill="#84BE84" rx="3" ry="3" style="stroke:#038048;stroke-width:1;"/><text fill="#000000" font-family="sans-serif" font-size="14" lengthAdjust="spacing" textLength="158.71" x="855" y="1515.4795">exists(String): boolean</text></g><!--class ProfileDao--><g class="entity" data-entity="ProfileDao" data-source-line="107" data-uid="ent0015" id="entity_ProfileDao"><rect fill="#F1F1F1" height="96.8906" rx="2.5" ry="2.5" style="stroke:#181818;stroke-width:0.5;" width="194.2324" x="855" y="1541.5"/><ellipse cx="911.8613" cy="1557.5" fill="#B4A7E5" rx="11" ry="11" style="stroke:#181818;stroke-width:1;"/><path d="M907.7832,1553.2656 L907.7832,1551.1094 L915.1738,1551.1094 L915.1738,1553.2656 L912.7051,1553.2656 L912.7051,1561.3438 L915.1738,1561.3438 L915.1738,1563.5 L907.7832,1563.5 L907.7832,1561.3438 L910.252,1561.3438 L910.252,1553.2656 L907.7832,1553.2656 Z " fill="#000000"/><text fill="#000000" font-family="sans-serif" font-size="14" font-style="italic" lengthAdjust="spacing" textLength="72.0098" x="932.3613" y="1562.3467">ProfileDao</text><line style="stroke:#181818;stroke-width:0.5;" x1="856" x2="1048.2324" y1="1573.5" y2="1573.5"/><line style="stroke:#181818;stroke-width:0.5;" x1="856" x2="1048.2324" y1="1581.5" y2="1581.5"/><ellipse cx="866" cy="1595.1484" fill="#84BE84" rx="3" ry="3" style="stroke:#038048;stroke-width:1;"/><text fill="#000000" font-family="sans-serif" font-size="14" lengthAdjust="spacing" textLength="153.0088" x="875" y="1598.4951">create(Profile): Profile</text><ellipse cx="866" cy="1611.4453" fill="#84BE84" rx="3" ry="3" style="stroke:#038048;stroke-width:1;"/><text fill="#000000" font-family="sans-serif" font-size="14" lengthAdjust="spacing" textLength="168.2324" x="875" y="1614.792">getByUserId(int): Profile</text><ellipse cx="866" cy="1627.7422" fill="#84BE84" rx="3" ry="3" style="stroke:#038048;stroke-width:1;"/><text fill="#000000" font-family="sans-serif" font-size="14" lengthAdjust="spacing" textLength="157.5889" x="875" y="1631.0889">update(Profile): Profile</text></g><!--class OrderDao--><g class="entity" data-entity="OrderDao" data-source-line="113" data-uid="ent0016" id="entity_OrderDao"><rect fill="#F1F1F1" height="80.5938" rx="2.5" ry="2.5" style="stroke:#181818;stroke-width:0.5;" width="238.1123" x="833" y="1656.5"/><ellipse cx="913.8281" cy="1672.5" fill="#B4A7E5" rx="11" ry="11" style="stroke:#181818;stroke-width:1;"/><path d="M909.75,1668.2656 L909.75,1666.1094 L917.1406,1666.1094 L917.1406,1668.2656 L914.6719,1668.2656 L914.6719,1676.3438 L917.1406,1676.3438 L917.1406,1678.5 L909.75,1678.5 L909.75,1676.3438 L912.2188,1676.3438 L912.2188,1668.2656 L909.75,1668.2656 Z " fill="#000000"/><text fill="#000000" font-family="sans-serif" font-size="14" font-style="italic" lengthAdjust="spacing" textLength="67.9561" x="934.3281" y="1677.3467">OrderDao</text><line style="stroke:#181818;stroke-width:0.5;" x1="834" x2="1070.1123" y1="1688.5" y2="1688.5"/><line style="stroke:#181818;stroke-width:0.5;" x1="834" x2="1070.1123" y1="1696.5" y2="1696.5"/><ellipse cx="844" cy="1710.1484" fill="#84BE84" rx="3" ry="3" style="stroke:#038048;stroke-width:1;"/><text fill="#000000" font-family="sans-serif" font-size="14" lengthAdjust="spacing" textLength="144.9014" x="853" y="1713.4951">create(Order): Order</text><ellipse cx="844" cy="1726.4453" fill="#84BE84" rx="3" ry="3" style="stroke:#038048;stroke-width:1;"/><text fill="#000000" font-family="sans-serif" font-size="14" lengthAdjust="spacing" textLength="212.1123" x="853" y="1729.792">getByUserId(int): List&lt;Order&gt;</text></g><!--class OrderItemDao--><g class="entity" data-entity="OrderItemDao" data-source-line="118" data-uid="ent0017" id="entity_OrderItemDao"><rect fill="#F1F1F1" height="80.5938" rx="2.5" ry="2.5" style="stroke:#181818;stroke-width:0.5;" width="278.1025" x="813" y="1755.5"/><ellipse cx="897.8887" cy="1771.5" fill="#B4A7E5" rx="11" ry="11" style="stroke:#181818;stroke-width:1;"/><path d="M893.8105,1767.2656 L893.8105,1765.1094 L901.2012,1765.1094 L901.2012,1767.2656 L898.7324,1767.2656 L898.7324,1775.3438 L901.2012,1775.3438 L901.2012,1777.5 L893.8105,1777.5 L893.8105,1775.3438 L896.2793,1775.3438 L896.2793,1767.2656 L893.8105,1767.2656 Z " fill="#000000"/><text fill="#000000" font-family="sans-serif" font-size="14" font-style="italic" lengthAdjust="spacing" textLength="99.8252" x="918.3887" y="1776.3467">OrderItemDao</text><line style="stroke:#181818;stroke-width:0.5;" x1="814" x2="1090.1025" y1="1787.5" y2="1787.5"/><line style="stroke:#181818;stroke-width:0.5;" x1="814" x2="1090.1025" y1="1795.5" y2="1795.5"/><ellipse cx="824" cy="1809.1484" fill="#84BE84" rx="3" ry="3" style="stroke:#038048;stroke-width:1;"/><text fill="#000000" font-family="sans-serif" font-size="14" lengthAdjust="spacing" textLength="166.3662" x="833" y="1812.4951">create(OrderItem): void</text><ellipse cx="824" cy="1825.4453" fill="#84BE84" rx="3" ry="3" style="stroke:#038048;stroke-width:1;"/><text fill="#000000" font-family="sans-serif" font-size="14" lengthAdjust="spacing" textLength="252.1025" x="833" y="1828.792">getByOrderId(int): List&lt;OrderItem&gt;</text></g><!--class ShoppingCartDao--><g class="entity" data-entity="ShoppingCartDao" data-source-line="123" data-uid="ent0018" id="entity_ShoppingCartDao"><rect fill="#F1F1F1" height="145.7813" rx="2.5" ry="2.5" style="stroke:#181818;stroke-width:0.5;" width="383.335" x="760.5" y="2019"/><ellipse cx="886.2813" cy="2035" fill="#B4A7E5" rx="11" ry="11" style="stroke:#181818;stroke-width:1;"/><path d="M882.2031,2030.7656 L882.2031,2028.6094 L889.5938,2028.6094 L889.5938,2030.7656 L887.125,2030.7656 L887.125,2038.8438 L889.5938,2038.8438 L889.5938,2041 L882.2031,2041 L882.2031,2038.8438 L884.6719,2038.8438 L884.6719,2030.7656 L882.2031,2030.7656 Z " fill="#000000"/><text fill="#000000" font-family="sans-serif" font-size="14" font-style="italic" lengthAdjust="spacing" textLength="123.2725" x="906.7813" y="2039.8467">ShoppingCartDao</text><line style="stroke:#181818;stroke-width:0.5;" x1="761.5" x2="1142.835" y1="2051" y2="2051"/><line style="stroke:#181818;stroke-width:0.5;" x1="761.5" x2="1142.835" y1="2059" y2="2059"/><ellipse cx="771.5" cy="2072.6484" fill="#84BE84" rx="3" ry="3" style="stroke:#038048;stroke-width:1;"/><text fill="#000000" font-family="sans-serif" font-size="14" lengthAdjust="spacing" textLength="219.4951" x="780.5" y="2075.9951">getByUserId(int): ShoppingCart</text><ellipse cx="771.5" cy="2088.9453" fill="#84BE84" rx="3" ry="3" style="stroke:#038048;stroke-width:1;"/><text fill="#000000" font-family="sans-serif" font-size="14" lengthAdjust="spacing" textLength="357.335" x="780.5" y="2092.292">getAllItems(int): Map&lt;Integer, ShoppingCartItem&gt;</text><ellipse cx="771.5" cy="2105.2422" fill="#84BE84" rx="3" ry="3" style="stroke:#038048;stroke-width:1;"/><text fill="#000000" font-family="sans-serif" font-size="14" lengthAdjust="spacing" textLength="175.1846" x="780.5" y="2108.5889">addProduct(int, int): void</text><ellipse cx="771.5" cy="2121.5391" fill="#84BE84" rx="3" ry="3" style="stroke:#038048;stroke-width:1;"/><text fill="#000000" font-family="sans-serif" font-size="14" lengthAdjust="spacing" textLength="312.1563" x="780.5" y="2124.8857">updateProductQuantity(int, int, int): boolean</text><ellipse cx="771.5" cy="2137.8359" fill="#84BE84" rx="3" ry="3" style="stroke:#038048;stroke-width:1;"/><text fill="#000000" font-family="sans-serif" font-size="14" lengthAdjust="spacing" textLength="228.6484" x="780.5" y="2141.1826">removeProduct(int, int): boolean</text><ellipse cx="771.5" cy="2154.1328" fill="#84BE84" rx="3" ry="3" style="stroke:#038048;stroke-width:1;"/><text fill="#000000" font-family="sans-serif" font-size="14" lengthAdjust="spacing" textLength="112.0752" x="780.5" y="2157.4795">delete(int): void</text></g><g class="link" data-entity-1="MySqlCategoryDao" data-entity-2="CategoryDao" data-uid="lnk19" id="link_MySqlCategoryDao_CategoryDao"><polygon fill="none" points="814.9072,1282.9418,798.5129,1273.3904,796.0609,1285.1372,814.9072,1282.9418" style="stroke:#181818;stroke-width:1;"/><path d="M446.1964,115.9456 C501.2334,126.5179 560.1138,148.6749 596,194 C665.375,281.6224 588.6601,1109.5679 657,1198 C694.5115,1246.5399 739.4779,1267.1969 797.2869,1279.2638" fill="none" style="stroke:#181818;stroke-width:1;stroke-dasharray:7,7;"/></g><g class="link" data-entity-1="MySqlProductDao" data-entity-2="ProductDao" data-uid="lnk20" id="link_MySqlProductDao_ProductDao"><polygon fill="none" points="665.481,1854.8871,656.7866,1838.0227,648.4069,1846.6122,665.481,1854.8871" style="stroke:#181818;stroke-width:1;"/><path d="M589.4815,980.5929 C591.7391,983.3157 593.9139,986.1173 596,989 C619.8153,1021.9104 603.5464,1680.7446 614,1720 C621.9319,1749.786 637.1789,1751.7824 647,1781 C656.3128,1808.7055 637.6015,1824.1363 657,1846 C659.7255,1849.0719 649.6712,1839.4633 652.5968,1842.3174" fill="none" style="stroke:#181818;stroke-width:1;stroke-dasharray:7,7;"/></g><g class="link" data-entity-1="MySqlUserDao" data-entity-2="UserDao" data-uid="lnk21" id="link_MySqlUserDao_UserDao"><polygon fill="none" points="834.736,1446.007,817.709,1437.6356,816.0915,1449.5261,834.736,1446.007" style="stroke:#181818;stroke-width:1;"/><path d="M426.2329,307.5615 C487.1769,319.6331 557.0683,345.1833 596,399 C620.1034,432.3189 609.6914,1098.1031 614,1139 C624.8499,1241.9866 587.0047,1291.6809 657,1368 C701.9498,1417.0108 755.6489,1435.2489 816.9002,1443.5808" fill="none" style="stroke:#181818;stroke-width:1;stroke-dasharray:7,7;"/></g><g class="link" data-entity-1="MySqlProfileDao" data-entity-2="ProfileDao" data-uid="lnk22" id="link_MySqlProfileDao_ProfileDao"><polygon fill="none" points="854.9447,1596.7722,837.0333,1590.5129,836.86,1602.5117,854.9447,1596.7722" style="stroke:#181818;stroke-width:1;"/><path d="M425.8197,465.6099 C486.2413,470.5433 555.7615,488.1006 596,538 C623.0692,571.5682 609.3102,1271.1331 614,1314 C624.7401,1412.17 587.1702,1462.1681 657,1532 C708.1339,1583.1354 772.4171,1595.5803 836.9466,1596.5123" fill="none" style="stroke:#181818;stroke-width:1;stroke-dasharray:7,7;"/></g><g class="link" data-entity-1="MySqlOrderDao" data-entity-2="OrderDao" data-uid="lnk23" id="link_MySqlOrderDao_OrderDao"><polygon fill="none" points="832.8002,1706.1145,814.9963,1699.5556,814.6217,1711.5497,832.8002,1706.1145" style="stroke:#181818;stroke-width:1;"/><path d="M428.0454,593.2692 C487.7781,596.7406 555.939,612.6017 596,661 C624.7361,695.7166 608.1173,1427.3189 614,1472 C624.511,1551.834 597.9814,1593.2209 657,1648 C703.5549,1691.2107 755.0675,1703.6868 814.809,1705.5526" fill="none" style="stroke:#181818;stroke-width:1;stroke-dasharray:7,7;"/></g><g class="link" data-entity-1="MySqlOrderItemDao" data-entity-2="OrderItemDao" data-uid="lnk24" id="link_MySqlOrderItemDao_OrderItemDao"><polygon fill="none" points="812.6344,1802.8951,795.17,1795.4794,794.2134,1807.4412,812.6344,1802.8951" style="stroke:#181818;stroke-width:1;"/><path d="M448.2235,717.9086 C502.584,723.662 560.3955,740.9749 596,784 C625.0506,819.1052 606.8744,1558.9941 614,1604 C619.1892,1636.7751 632.0947,1725.0715 657,1747 C699.1382,1784.1017 740.4262,1797.121 794.6917,1801.4603" fill="none" style="stroke:#181818;stroke-width:1;stroke-dasharray:7,7;"/></g><g class="link" data-entity-1="MySqlShoppingCartDao" data-entity-2="ShoppingCartDao" data-uid="lnk25" id="link_MySqlShoppingCartDao_ShoppingCartDao"><polygon fill="none" points="760.3748,2066.7163,745.1109,2055.4463,741.4017,2066.8587,760.3748,2066.7163" style="stroke:#181818;stroke-width:1;"/><path d="M317.992,1185.6947 C338.9088,1371.0497 411.9635,1785.9448 657,2010 C685.9386,2036.4608 705.5944,2048.9118 743.2563,2061.1525" fill="none" style="stroke:#181818;stroke-width:1;stroke-dasharray:7,7;"/></g><g class="link" data-entity-1="MySqlCategoryDao" data-entity-2="MySqlDaoBase" data-uid="lnk26" id="link_MySqlCategoryDao_MySqlDaoBase"><polygon fill="none" points="921.7777,551.494,917.2381,533.0714,907.0925,539.4796,921.7777,551.494" style="stroke:#181818;stroke-width:1;"/><path d="M446.2505,132.4496 C496.0355,145.5123 551.1024,165.0821 596,194 C745.1677,290.0769 858.4061,451.1629 912.1653,536.2755" fill="none" style="stroke:#181818;stroke-width:1;"/></g><g class="link" data-entity-1="MySqlProductDao" data-entity-2="MySqlDaoBase" data-uid="lnk27" id="link_MySqlProductDao_MySqlDaoBase"><polygon fill="none" points="865.0305,648.6495,846.3717,652.092,852.169,662.5988,865.0305,648.6495" style="stroke:#181818;stroke-width:1;"/><path d="M573.8829,793.4463 C581.3602,790.3212 588.746,787.1695 596,784 C690.1452,742.8649 778.326,696.4901 849.2704,657.3454" fill="none" style="stroke:#181818;stroke-width:1;"/></g><g class="link" data-entity-1="MySqlUserDao" data-entity-2="MySqlDaoBase" data-uid="lnk28" id="link_MySqlUserDao_MySqlDaoBase"><polygon fill="none" points="874.0793,551.3021,861.8929,536.7593,855.6045,546.9796,874.0793,551.3021" style="stroke:#181818;stroke-width:1;"/><path d="M426.2675,333.3828 C478.9292,351.1487 541.4665,374.0632 596,399 C695.1922,444.3581 788.1798,498.4495 858.7487,541.8694" fill="none" style="stroke:#181818;stroke-width:1;"/></g><g class="link" data-entity-1="MySqlProfileDao" data-entity-2="MySqlDaoBase" data-uid="lnk29" id="link_MySqlProfileDao_MySqlDaoBase"><polygon fill="none" points="837.8,576.8655,821.3658,567.3829,818.9631,579.1399,837.8,576.8655" style="stroke:#181818;stroke-width:1;"/><path d="M425.7091,492.6472 C542.5475,516.5253 704.2304,549.5682 820.1645,573.2614" fill="none" style="stroke:#181818;stroke-width:1;"/></g><g class="link" data-entity-1="MySqlOrderDao" data-entity-2="MySqlDaoBase" data-uid="lnk30" id="link_MySqlOrderDao_MySqlDaoBase"><polygon fill="none" points="837.9448,600,819.9448,594,819.9448,606,837.9448,600" style="stroke:#181818;stroke-width:1;"/><path d="M428.3163,600 C545.2502,600 704.8739,600 819.9448,600" fill="none" style="stroke:#181818;stroke-width:1;"/></g><g class="link" data-entity-1="MySqlOrderItemDao" data-entity-2="MySqlDaoBase" data-uid="lnk31" id="link_MySqlOrderItemDao_MySqlDaoBase"><polygon fill="none" points="837.7845,621.7247,818.9763,619.2243,821.2377,631.0093,837.7845,621.7247" style="stroke:#181818;stroke-width:1;"/><path d="M448.2983,696.4623 C564.6909,674.128 711.4127,645.9739 820.107,625.1168" fill="none" style="stroke:#181818;stroke-width:1;"/></g><g class="link" data-entity-1="MySqlShoppingCartDao" data-entity-2="MySqlDaoBase" data-uid="lnk32" id="link_MySqlShoppingCartDao_MySqlDaoBase"><polygon fill="none" points="918.7556,648.5384,903.5724,659.9169,913.4361,666.7512,918.7556,648.5384" style="stroke:#181818;stroke-width:1;"/><path d="M500.5162,1038.1067 C533.7314,1024.6643 566.916,1008.4048 596,989 C738.414,893.9812 852.1699,744.6404 908.5042,663.334" fill="none" style="stroke:#181818;stroke-width:1;"/></g><g class="link" data-entity-1="MySqlShoppingCartDao" data-entity-2="ProductDao" data-uid="lnk33" id="link_MySqlShoppingCartDao_ProductDao"><polygon fill="#181818" points="667.6136,1854.7989,662.6226,1846.3083,663.5476,1851.889,657.9669,1852.814,667.6136,1854.7989" style="stroke:#181818;stroke-width:1;"/><path d="M338.6114,1185.6295 C384.0449,1326.1838 481.3135,1596.8744 614,1800 C628.2041,1821.7446 641.7799,1836.3112 662.7344,1851.3071" fill="none" style="stroke:#181818;stroke-width:1;"/><text fill="#000000" font-family="sans-serif" font-size="13" lengthAdjust="spacing" textLength="29.7832" x="616" y="1795.0669">uses</text></g><!--SRC=[xPTHRvim483V-HMtxc6fqbJTmrwgA5BJl4HgrxLHVu0BbyGgO6OxtH3hVvyDDXWCB2_LDgcyW7sVptVdiyzyo3ZP9GHYahE3196W92a9OjnAa0mutUqbH9HZA2bBW-0JF0e4kQT2YxUCXmWOOuAfB7k49E4pl22ND2Hnd0VYcQOPuII1b4KeC8FF5nTEBoVfSzdxvK9hlyqtzpUmkhg3TP9LUecUMGIPKans22SLqXQVG160UiYJa9o44iAO2A6rVOzNX2s9CheYz3E3Y4YoOGTb_IMiwkyQcBP6JXhYj4O-mWxbDKlJAZAJqqjeMYNr6fGlnv9h8d77UAxqmdpECME2IjLUB1pZfXxRE_zKptyLMuwYq2RSK27dTkYY3I_pTJIXgTIM6i81GewgSs8b_T0XYpIab9o1Gxum6ZbKf1AYeboP7uvld4M7K1uJZGOT28P0miFzP9qgev2VmPBkLXZIXCJjxutaDDrrtpPoPXetSB7gN-RMsJg2GtWxpWRmmsm4lOWRv8OxAiPLOXP2Ruhm5HAIFR0VamSKXrXki3kTlo9gR_DZbiDm0sjXVDIGcb6_lAojSrLBE_7JNKuC_V7BNFTz9GbEwkNpgNLKSMcBKpeT37yg6qGZVM8iHf8w1qLF2EkfUZDwIsCyCgCDEXv5mrLBfx_wOk4cN8SnsTIlnlVWZaV7fO05nwqlAJLf-HwrlCo64bkCcRQMc1njde6FC56J_YOhhQpalfbwo92fcptBCfLIruIF7sypoEgJhTwSwhlhJaUXuz6PC-fqDCAk3cz3Qc-40Mz9DgyFKdTKut8rb4IHcRmwhNfE8vk0Xhi_a5HIcTUy7TJTULFWcB0NxD7leqC5HosCkbAKbmdb3j-I49rxX8uXN8MgJy0DoP7RImIrCBW5k_ZlIs_ZbrDvY_SY-gTesQfO_AjbRBJWZjMuliIm1QpuExMeiQKkHSKRr9NEDBQi56zO7vefk-MXU3-tlNFR7jojtpnumBZw7TpJJ0JUJzNv-Q-5UsW7tV-C4d3ARElMMmfD8-ZUv-n8qmxQjwLIQbk1VrrfvAOdwBqdb5YdC_3TdCqKvlwXUduE4DRJOGNMtG6YTdXCRfqUOBfE-vX-1b1tzU0I3WB5Rm00]--></g></svg>