<svg xmlns="http://www.w3.org/2000/svg" xmlns:xlink="http://www.w3.org/1999/xlink" contentStyleType="text/css" data-diagram-type="CLASS" height="721px" preserveAspectRatio="none" style="width:2871px;height:721px;background:#FFFFFF;" version="1.1" viewBox="0 0 2871 721" width="2871px" zoomAndPan="magnify"><defs/><g><!--cluster Security Layer--><g class="cluster" data-entity="Security Layer" data-source-line="2" data-uid="ent0002" id="cluster_Security Layer"><path d="M8.5,6 L123.6328,6 A3.75,3.75 0 0 1 126.1328,8.5 L133.1328,28.2969 L2084.5,28.2969 A2.5,2.5 0 0 1 2087,30.7969 L2087,711.5 A2.5,2.5 0 0 1 2084.5,714 L8.5,714 A2.5,2.5 0 0 1 6,711.5 L6,8.5 A2.5,2.5 0 0 1 8.5,6" fill="none" style="stroke:#000000;stroke-width:1.5;"/><line style="stroke:#000000;stroke-width:1.5;" x1="6" x2="133.1328" y1="28.2969" y2="28.2969"/><text fill="#000000" font-family="sans-serif" font-size="14" font-weight="bold" lengthAdjust="spacing" textLength="114.1328" x="10" y="20.9951">Security Layer</text></g><!--cluster Configuration--><g class="cluster" data-entity="Configuration" data-source-line="70" data-uid="ent0012" id="cluster_Configuration"><path d="M2113.5,30.5 L2222.665,30.5 A3.75,3.75 0 0 1 2225.165,33 L2232.165,52.7969 L2861.5,52.7969 A2.5,2.5 0 0 1 2864,55.2969 L2864,184 A2.5,2.5 0 0 1 2861.5,186.5 L2113.5,186.5 A2.5,2.5 0 0 1 2111,184 L2111,33 A2.5,2.5 0 0 1 2113.5,30.5" fill="none" style="stroke:#000000;stroke-width:1.5;"/><line style="stroke:#000000;stroke-width:1.5;" x1="2111" x2="2232.165" y1="52.7969" y2="52.7969"/><text fill="#000000" font-family="sans-serif" font-size="14" font-weight="bold" lengthAdjust="spacing" textLength="108.165" x="2115" y="45.4951">Configuration</text></g><!--class WebSecurityConfig--><g class="entity" data-entity="WebSecurityConfig" data-source-line="3" data-uid="ent0003" id="entity_WebSecurityConfig"><rect fill="#F1F1F1" height="154.0469" rx="2.5" ry="2.5" style="stroke:#181818;stroke-width:0.5;" width="659.7529" x="1036" y="41"/><ellipse cx="1294.7505" cy="61.1328" fill="#ADD1B2" rx="11" ry="11" style="stroke:#181818;stroke-width:1;"/><path d="M1297.7192,66.7734 Q1297.1411,67.0703 1296.5005,67.2109 Q1295.8599,67.3672 1295.1567,67.3672 Q1292.6567,67.3672 1291.3286,65.7266 Q1290.0161,64.0703 1290.0161,60.9453 Q1290.0161,57.8203 1291.3286,56.1641 Q1292.6567,54.5078 1295.1567,54.5078 Q1295.8599,54.5078 1296.5005,54.6641 Q1297.1567,54.8203 1297.7192,55.1172 L1297.7192,57.8359 Q1297.0942,57.2578 1296.5005,56.9922 Q1295.9067,56.7109 1295.2817,56.7109 Q1293.938,56.7109 1293.2505,57.7891 Q1292.563,58.8516 1292.563,60.9453 Q1292.563,63.0391 1293.2505,64.1172 Q1293.938,65.1797 1295.2817,65.1797 Q1295.9067,65.1797 1296.5005,64.9141 Q1297.0942,64.6328 1297.7192,64.0547 L1297.7192,66.7734 Z " fill="#000000"/><text fill="#000000" font-family="sans-serif" font-size="12" font-style="italic" lengthAdjust="spacing" textLength="96.1934" x="1334.0298" y="57.1387">&#171;Configuration&#187;</text><text fill="#000000" font-family="sans-serif" font-size="14" lengthAdjust="spacing" textLength="133.752" x="1315.2505" y="72.9639">WebSecurityConfig</text><line style="stroke:#181818;stroke-width:0.5;" x1="1037" x2="1694.7529" y1="81.2656" y2="81.2656"/><rect fill="none" height="6" style="stroke:#C82930;stroke-width:1;" width="6" x="1044" y="91.9141"/><text fill="#000000" font-family="sans-serif" font-size="14" lengthAdjust="spacing" textLength="207.915" x="1056" y="98.2607">tokenProvider: TokenProvider</text><rect fill="none" height="6" style="stroke:#C82930;stroke-width:1;" width="6" x="1044" y="108.2109"/><text fill="#000000" font-family="sans-serif" font-size="14" lengthAdjust="spacing" textLength="401.625" x="1056" y="114.5576">jwtAuthenticationEntryPoint: JwtAuthenticationEntryPoint</text><rect fill="none" height="6" style="stroke:#C82930;stroke-width:1;" width="6" x="1044" y="124.5078"/><text fill="#000000" font-family="sans-serif" font-size="14" lengthAdjust="spacing" textLength="356.9727" x="1056" y="130.8545">jwtAccessDeniedHandler: JwtAccessDeniedHandler</text><line style="stroke:#181818;stroke-width:0.5;" x1="1037" x2="1694.7529" y1="138.1563" y2="138.1563"/><ellipse cx="1047" cy="151.8047" fill="#84BE84" rx="3" ry="3" style="stroke:#038048;stroke-width:1;"/><text fill="#000000" font-family="sans-serif" font-size="14" lengthAdjust="spacing" textLength="633.7529" x="1056" y="155.1514">WebSecurityConfig(TokenProvider, JwtAuthenticationEntryPoint, JwtAccessDeniedHandler)</text><ellipse cx="1047" cy="168.1016" fill="#84BE84" rx="3" ry="3" style="stroke:#038048;stroke-width:1;"/><text fill="#000000" font-family="sans-serif" font-size="14" lengthAdjust="spacing" textLength="267.5449" x="1056" y="171.4482">passwordEncoder(): PasswordEncoder</text><ellipse cx="1047" cy="184.3984" fill="#84BE84" rx="3" ry="3" style="stroke:#038048;stroke-width:1;"/><text fill="#000000" font-family="sans-serif" font-size="14" lengthAdjust="spacing" textLength="372.7227" x="1056" y="187.7451">securityFilterChain(HttpSecurity): SecurityFilterChain</text></g><!--class UserModelDetailsService--><g class="entity" data-entity="UserModelDetailsService" data-source-line="12" data-uid="ent0004" id="entity_UserModelDetailsService"><rect fill="#F1F1F1" height="137.75" rx="2.5" ry="2.5" style="stroke:#181818;stroke-width:0.5;" width="339.9199" x="1731" y="49"/><ellipse cx="1809.5996" cy="69.1328" fill="#ADD1B2" rx="11" ry="11" style="stroke:#181818;stroke-width:1;"/><path d="M1812.5684,74.7734 Q1811.9902,75.0703 1811.3496,75.2109 Q1810.709,75.3672 1810.0059,75.3672 Q1807.5059,75.3672 1806.1777,73.7266 Q1804.8652,72.0703 1804.8652,68.9453 Q1804.8652,65.8203 1806.1777,64.1641 Q1807.5059,62.5078 1810.0059,62.5078 Q1810.709,62.5078 1811.3496,62.6641 Q1812.0059,62.8203 1812.5684,63.1172 L1812.5684,65.8359 Q1811.9434,65.2578 1811.3496,64.9922 Q1810.7559,64.7109 1810.1309,64.7109 Q1808.7871,64.7109 1808.0996,65.7891 Q1807.4121,66.8516 1807.4121,68.9453 Q1807.4121,71.0391 1808.0996,72.1172 Q1808.7871,73.1797 1810.1309,73.1797 Q1810.7559,73.1797 1811.3496,72.9141 Q1811.9434,72.6328 1812.5684,72.0547 L1812.5684,74.7734 Z " fill="#000000"/><text fill="#000000" font-family="sans-serif" font-size="12" font-style="italic" lengthAdjust="spacing" textLength="84.4805" x="1874.9697" y="65.1387">&#171;Component&#187;</text><text fill="#000000" font-family="sans-serif" font-size="14" lengthAdjust="spacing" textLength="174.2207" x="1830.0996" y="80.9639">UserModelDetailsService</text><line style="stroke:#181818;stroke-width:0.5;" x1="1732" x2="2069.9199" y1="89.2656" y2="89.2656"/><rect fill="none" height="6" style="stroke:#C82930;stroke-width:1;" width="6" x="1739" y="99.9141"/><text fill="#000000" font-family="sans-serif" font-size="14" lengthAdjust="spacing" textLength="79.0166" x="1751" y="106.2607">log: Logger</text><rect fill="none" height="6" style="stroke:#C82930;stroke-width:1;" width="6" x="1739" y="116.2109"/><text fill="#000000" font-family="sans-serif" font-size="14" lengthAdjust="spacing" textLength="127.4629" x="1751" y="122.5576">userDao: UserDao</text><line style="stroke:#181818;stroke-width:0.5;" x1="1732" x2="2069.9199" y1="129.8594" y2="129.8594"/><ellipse cx="1742" cy="143.5078" fill="#84BE84" rx="3" ry="3" style="stroke:#038048;stroke-width:1;"/><text fill="#000000" font-family="sans-serif" font-size="14" lengthAdjust="spacing" textLength="244.9795" x="1751" y="146.8545">UserModelDetailsService(UserDao)</text><ellipse cx="1742" cy="159.8047" fill="#84BE84" rx="3" ry="3" style="stroke:#038048;stroke-width:1;"/><text fill="#000000" font-family="sans-serif" font-size="14" lengthAdjust="spacing" textLength="293.6514" x="1751" y="163.1514">loadUserByUsername(String): UserDetails</text><rect fill="#F24D5C" height="6" style="stroke:#C82930;stroke-width:1;" width="6" x="1739" y="173.1016"/><text fill="#000000" font-family="sans-serif" font-size="14" lengthAdjust="spacing" textLength="313.9199" x="1751" y="179.4482">createSpringSecurityUser(String, User): User</text></g><!--class SecurityUtils--><g class="entity" data-entity="SecurityUtils" data-source-line="20" data-uid="ent0005" id="entity_SecurityUtils"><rect fill="#F1F1F1" height="105.1563" rx="2.5" ry="2.5" style="stroke:#181818;stroke-width:0.5;" width="318.2637" x="596" y="65.5"/><ellipse cx="706.7319" cy="85.6328" fill="#ADD1B2" rx="11" ry="11" style="stroke:#181818;stroke-width:1;"/><path d="M709.7007,91.2734 Q709.1226,91.5703 708.4819,91.7109 Q707.8413,91.8672 707.1382,91.8672 Q704.6382,91.8672 703.3101,90.2266 Q701.9976,88.5703 701.9976,85.4453 Q701.9976,82.3203 703.3101,80.6641 Q704.6382,79.0078 707.1382,79.0078 Q707.8413,79.0078 708.4819,79.1641 Q709.1382,79.3203 709.7007,79.6172 L709.7007,82.3359 Q709.0757,81.7578 708.4819,81.4922 Q707.8882,81.2109 707.2632,81.2109 Q705.9194,81.2109 705.2319,82.2891 Q704.5444,83.3516 704.5444,85.4453 Q704.5444,87.5391 705.2319,88.6172 Q705.9194,89.6797 707.2632,89.6797 Q707.8882,89.6797 708.4819,89.4141 Q709.0757,89.1328 709.7007,88.5547 L709.7007,91.2734 Z " fill="#000000"/><text fill="#000000" font-family="sans-serif" font-size="12" font-style="italic" lengthAdjust="spacing" textLength="50.1094" x="746.3271" y="81.6387">&#171;Utility&#187;</text><text fill="#000000" font-family="sans-serif" font-size="14" lengthAdjust="spacing" textLength="88.2998" x="727.2319" y="97.4639">SecurityUtils</text><line style="stroke:#181818;stroke-width:0.5;" x1="597" x2="913.2637" y1="105.7656" y2="105.7656"/><rect fill="none" height="6" style="stroke:#C82930;stroke-width:1;" width="6" x="604" y="116.4141"/><text fill="#000000" font-family="sans-serif" font-size="14" lengthAdjust="spacing" text-decoration="underline" textLength="87.3428" x="616" y="122.7607">LOG: Logger</text><line style="stroke:#181818;stroke-width:0.5;" x1="597" x2="913.2637" y1="130.0625" y2="130.0625"/><rect fill="#F24D5C" height="6" style="stroke:#C82930;stroke-width:1;" width="6" x="604" y="140.7109"/><text fill="#000000" font-family="sans-serif" font-size="14" lengthAdjust="spacing" textLength="99.2236" x="616" y="147.0576">SecurityUtils()</text><ellipse cx="607" cy="160.0078" fill="#84BE84" rx="3" ry="3" style="stroke:#038048;stroke-width:1;"/><text fill="#000000" font-family="sans-serif" font-size="14" lengthAdjust="spacing" text-decoration="underline" textLength="292.2637" x="616" y="163.3545">getCurrentUsername(): Optional&lt;String&gt;</text></g><!--class JwtAccessDeniedHandler--><g class="entity" data-entity="JwtAccessDeniedHandler" data-source-line="26" data-uid="ent0006" id="entity_JwtAccessDeniedHandler"><rect fill="#F1F1F1" height="72.5625" rx="2.5" ry="2.5" style="stroke:#181818;stroke-width:0.5;" width="593.4238" x="504.5" y="308.5"/><ellipse cx="709.9507" cy="328.6328" fill="#ADD1B2" rx="11" ry="11" style="stroke:#181818;stroke-width:1;"/><path d="M712.9194,334.2734 Q712.3413,334.5703 711.7007,334.7109 Q711.0601,334.8672 710.3569,334.8672 Q707.8569,334.8672 706.5288,333.2266 Q705.2163,331.5703 705.2163,328.4453 Q705.2163,325.3203 706.5288,323.6641 Q707.8569,322.0078 710.3569,322.0078 Q711.0601,322.0078 711.7007,322.1641 Q712.3569,322.3203 712.9194,322.6172 L712.9194,325.3359 Q712.2944,324.7578 711.7007,324.4922 Q711.1069,324.2109 710.4819,324.2109 Q709.1382,324.2109 708.4507,325.2891 Q707.7632,326.3516 707.7632,328.4453 Q707.7632,330.5391 708.4507,331.6172 Q709.1382,332.6797 710.4819,332.6797 Q711.1069,332.6797 711.7007,332.4141 Q712.2944,332.1328 712.9194,331.5547 L712.9194,334.2734 Z " fill="#000000"/><text fill="#000000" font-family="sans-serif" font-size="12" font-style="italic" lengthAdjust="spacing" textLength="84.4805" x="775.2217" y="324.6387">&#171;Component&#187;</text><text fill="#000000" font-family="sans-serif" font-size="14" lengthAdjust="spacing" textLength="174.0225" x="730.4507" y="340.4639">JwtAccessDeniedHandler</text><line style="stroke:#181818;stroke-width:0.5;" x1="505.5" x2="1096.9238" y1="348.7656" y2="348.7656"/><line style="stroke:#181818;stroke-width:0.5;" x1="505.5" x2="1096.9238" y1="356.7656" y2="356.7656"/><ellipse cx="515.5" cy="370.4141" fill="#84BE84" rx="3" ry="3" style="stroke:#038048;stroke-width:1;"/><text fill="#000000" font-family="sans-serif" font-size="14" lengthAdjust="spacing" textLength="567.4238" x="524.5" y="373.7607">handle(HttpServletRequest, HttpServletResponse, AccessDeniedException): void</text></g><!--class JwtAuthenticationEntryPoint--><g class="entity" data-entity="JwtAuthenticationEntryPoint" data-source-line="30" data-uid="ent0007" id="entity_JwtAuthenticationEntryPoint"><rect fill="#F1F1F1" height="72.5625" rx="2.5" ry="2.5" style="stroke:#181818;stroke-width:0.5;" width="627.9863" x="1133" y="308.5"/><ellipse cx="1344.5688" cy="328.6328" fill="#ADD1B2" rx="11" ry="11" style="stroke:#181818;stroke-width:1;"/><path d="M1347.5376,334.2734 Q1346.9595,334.5703 1346.3188,334.7109 Q1345.6782,334.8672 1344.9751,334.8672 Q1342.4751,334.8672 1341.147,333.2266 Q1339.8345,331.5703 1339.8345,328.4453 Q1339.8345,325.3203 1341.147,323.6641 Q1342.4751,322.0078 1344.9751,322.0078 Q1345.6782,322.0078 1346.3188,322.1641 Q1346.9751,322.3203 1347.5376,322.6172 L1347.5376,325.3359 Q1346.9126,324.7578 1346.3188,324.4922 Q1345.7251,324.2109 1345.1001,324.2109 Q1343.7563,324.2109 1343.0688,325.2891 Q1342.3813,326.3516 1342.3813,328.4453 Q1342.3813,330.5391 1343.0688,331.6172 Q1343.7563,332.6797 1345.1001,332.6797 Q1345.7251,332.6797 1346.3188,332.4141 Q1346.9126,332.1328 1347.5376,331.5547 L1347.5376,334.2734 Z " fill="#000000"/><text fill="#000000" font-family="sans-serif" font-size="12" font-style="italic" lengthAdjust="spacing" textLength="84.4805" x="1421.0029" y="324.6387">&#171;Component&#187;</text><text fill="#000000" font-family="sans-serif" font-size="14" lengthAdjust="spacing" textLength="196.3486" x="1365.0688" y="340.4639">JwtAuthenticationEntryPoint</text><line style="stroke:#181818;stroke-width:0.5;" x1="1134" x2="1759.9863" y1="348.7656" y2="348.7656"/><line style="stroke:#181818;stroke-width:0.5;" x1="1134" x2="1759.9863" y1="356.7656" y2="356.7656"/><ellipse cx="1144" cy="370.4141" fill="#84BE84" rx="3" ry="3" style="stroke:#038048;stroke-width:1;"/><text fill="#000000" font-family="sans-serif" font-size="14" lengthAdjust="spacing" textLength="601.9863" x="1153" y="373.7607">commence(HttpServletRequest, HttpServletResponse, AuthenticationException): void</text></g><!--class UserNotActivatedException--><g class="entity" data-entity="UserNotActivatedException" data-source-line="34" data-uid="ent0008" id="entity_UserNotActivatedException"><rect fill="#F1F1F1" height="80.5938" rx="2.5" ry="2.5" style="stroke:#181818;stroke-width:0.5;" width="276.4414" x="110" y="77.5"/><ellipse cx="148.5582" cy="93.5" fill="#ADD1B2" rx="11" ry="11" style="stroke:#181818;stroke-width:1;"/><path d="M151.527,99.1406 Q150.9488,99.4375 150.3082,99.5781 Q149.6676,99.7344 148.9645,99.7344 Q146.4645,99.7344 145.1363,98.0938 Q143.8238,96.4375 143.8238,93.3125 Q143.8238,90.1875 145.1363,88.5313 Q146.4645,86.875 148.9645,86.875 Q149.6676,86.875 150.3082,87.0313 Q150.9645,87.1875 151.527,87.4844 L151.527,90.2031 Q150.902,89.625 150.3082,89.3594 Q149.7145,89.0781 149.0895,89.0781 Q147.7457,89.0781 147.0582,90.1563 Q146.3707,91.2188 146.3707,93.3125 Q146.3707,95.4063 147.0582,96.4844 Q147.7457,97.5469 149.0895,97.5469 Q149.7145,97.5469 150.3082,97.2813 Q150.902,97 151.527,96.4219 L151.527,99.1406 Z " fill="#000000"/><text fill="#000000" font-family="sans-serif" font-size="14" lengthAdjust="spacing" textLength="192.0898" x="167.7934" y="98.3467">UserNotActivatedException</text><line style="stroke:#181818;stroke-width:0.5;" x1="111" x2="385.4414" y1="109.5" y2="109.5"/><rect fill="none" height="6" style="stroke:#C82930;stroke-width:1;" width="6" x="118" y="120.1484"/><text fill="#000000" font-family="sans-serif" font-size="14" lengthAdjust="spacing" textLength="250.4414" x="130" y="126.4951">{static final} serialVersionUID: long</text><line style="stroke:#181818;stroke-width:0.5;" x1="111" x2="385.4414" y1="133.7969" y2="133.7969"/><ellipse cx="121" cy="147.4453" fill="#84BE84" rx="3" ry="3" style="stroke:#038048;stroke-width:1;"/><text fill="#000000" font-family="sans-serif" font-size="14" lengthAdjust="spacing" textLength="244.7949" x="130" y="150.792">UserNotActivatedException(String)</text></g><!--class TokenProvider--><g class="entity" data-entity="TokenProvider" data-source-line="39" data-uid="ent0009" id="entity_TokenProvider"><rect fill="#F1F1F1" height="219.2344" rx="2.5" ry="2.5" style="stroke:#181818;stroke-width:0.5;" width="342.9756" x="1625.5" y="479"/><ellipse cx="1742.2852" cy="499.1328" fill="#ADD1B2" rx="11" ry="11" style="stroke:#181818;stroke-width:1;"/><path d="M1745.2539,504.7734 Q1744.6758,505.0703 1744.0352,505.2109 Q1743.3945,505.3672 1742.6914,505.3672 Q1740.1914,505.3672 1738.8633,503.7266 Q1737.5508,502.0703 1737.5508,498.9453 Q1737.5508,495.8203 1738.8633,494.1641 Q1740.1914,492.5078 1742.6914,492.5078 Q1743.3945,492.5078 1744.0352,492.6641 Q1744.6914,492.8203 1745.2539,493.1172 L1745.2539,495.8359 Q1744.6289,495.2578 1744.0352,494.9922 Q1743.4414,494.7109 1742.8164,494.7109 Q1741.4727,494.7109 1740.7852,495.7891 Q1740.0977,496.8516 1740.0977,498.9453 Q1740.0977,501.0391 1740.7852,502.1172 Q1741.4727,503.1797 1742.8164,503.1797 Q1743.4414,503.1797 1744.0352,502.9141 Q1744.6289,502.6328 1745.2539,502.0547 L1745.2539,504.7734 Z " fill="#000000"/><text fill="#000000" font-family="sans-serif" font-size="12" font-style="italic" lengthAdjust="spacing" textLength="84.4805" x="1770.9976" y="495.1387">&#171;Component&#187;</text><text fill="#000000" font-family="sans-serif" font-size="14" lengthAdjust="spacing" textLength="100.9053" x="1762.7852" y="510.9639">TokenProvider</text><line style="stroke:#181818;stroke-width:0.5;" x1="1626.5" x2="1967.4756" y1="519.2656" y2="519.2656"/><rect fill="none" height="6" style="stroke:#C82930;stroke-width:1;" width="6" x="1633.5" y="529.9141"/><text fill="#000000" font-family="sans-serif" font-size="14" lengthAdjust="spacing" textLength="102.2725" x="1645.5" y="536.2607">logger: Logger</text><rect fill="none" height="6" style="stroke:#C82930;stroke-width:1;" width="6" x="1633.5" y="546.2109"/><text fill="#000000" font-family="sans-serif" font-size="14" lengthAdjust="spacing" textLength="274.0322" x="1645.5" y="552.5576">{static final} AUTHORITIES_KEY: String</text><rect fill="none" height="6" style="stroke:#C82930;stroke-width:1;" width="6" x="1633.5" y="562.5078"/><text fill="#000000" font-family="sans-serif" font-size="14" lengthAdjust="spacing" textLength="94.4111" x="1645.5" y="568.8545">secret: String</text><rect fill="none" height="6" style="stroke:#C82930;stroke-width:1;" width="6" x="1633.5" y="578.8047"/><text fill="#000000" font-family="sans-serif" font-size="14" lengthAdjust="spacing" textLength="136.6504" x="1645.5" y="585.1514">tokenTimeout: long</text><rect fill="none" height="6" style="stroke:#C82930;stroke-width:1;" width="6" x="1633.5" y="595.1016"/><text fill="#000000" font-family="sans-serif" font-size="14" lengthAdjust="spacing" textLength="60.252" x="1645.5" y="601.4482">key: Key</text><line style="stroke:#181818;stroke-width:0.5;" x1="1626.5" x2="1967.4756" y1="608.75" y2="608.75"/><ellipse cx="1636.5" cy="622.3984" fill="#84BE84" rx="3" ry="3" style="stroke:#038048;stroke-width:1;"/><text fill="#000000" font-family="sans-serif" font-size="14" lengthAdjust="spacing" textLength="192.7256" x="1645.5" y="625.7451">TokenProvider(String, long)</text><ellipse cx="1636.5" cy="638.6953" fill="#84BE84" rx="3" ry="3" style="stroke:#038048;stroke-width:1;"/><text fill="#000000" font-family="sans-serif" font-size="14" lengthAdjust="spacing" textLength="177.3789" x="1645.5" y="642.042">afterPropertiesSet(): void</text><ellipse cx="1636.5" cy="654.9922" fill="#84BE84" rx="3" ry="3" style="stroke:#038048;stroke-width:1;"/><text fill="#000000" font-family="sans-serif" font-size="14" lengthAdjust="spacing" textLength="316.9756" x="1645.5" y="658.3389">createToken(Authentication, boolean): String</text><ellipse cx="1636.5" cy="671.2891" fill="#84BE84" rx="3" ry="3" style="stroke:#038048;stroke-width:1;"/><text fill="#000000" font-family="sans-serif" font-size="14" lengthAdjust="spacing" textLength="290.4043" x="1645.5" y="674.6357">getAuthentication(String): Authentication</text><ellipse cx="1636.5" cy="687.5859" fill="#84BE84" rx="3" ry="3" style="stroke:#038048;stroke-width:1;"/><text fill="#000000" font-family="sans-serif" font-size="14" lengthAdjust="spacing" textLength="216.7676" x="1645.5" y="690.9326">validateToken(String): boolean</text></g><!--class JWTFilter--><g class="entity" data-entity="JWTFilter" data-source-line="52" data-uid="ent0010" id="entity_JWTFilter"><rect fill="#F1F1F1" height="145.7813" rx="2.5" ry="2.5" style="stroke:#181818;stroke-width:0.5;" width="446.7725" x="22.5" y="272"/><ellipse cx="210.5293" cy="288" fill="#ADD1B2" rx="11" ry="11" style="stroke:#181818;stroke-width:1;"/><path d="M213.498,293.6406 Q212.9199,293.9375 212.2793,294.0781 Q211.6387,294.2344 210.9355,294.2344 Q208.4355,294.2344 207.1074,292.5938 Q205.7949,290.9375 205.7949,287.8125 Q205.7949,284.6875 207.1074,283.0313 Q208.4355,281.375 210.9355,281.375 Q211.6387,281.375 212.2793,281.5313 Q212.9355,281.6875 213.498,281.9844 L213.498,284.7031 Q212.873,284.125 212.2793,283.8594 Q211.6855,283.5781 211.0605,283.5781 Q209.7168,283.5781 209.0293,284.6563 Q208.3418,285.7188 208.3418,287.8125 Q208.3418,289.9063 209.0293,290.9844 Q209.7168,292.0469 211.0605,292.0469 Q211.6855,292.0469 212.2793,291.7813 Q212.873,291.5 213.498,290.9219 L213.498,293.6406 Z " fill="#000000"/><text fill="#000000" font-family="sans-serif" font-size="14" lengthAdjust="spacing" textLength="62.2139" x="231.0293" y="292.8467">JWTFilter</text><line style="stroke:#181818;stroke-width:0.5;" x1="23.5" x2="468.2725" y1="304" y2="304"/><rect fill="none" height="6" style="stroke:#C82930;stroke-width:1;" width="6" x="30.5" y="314.6484"/><text fill="#000000" font-family="sans-serif" font-size="14" lengthAdjust="spacing" text-decoration="underline" textLength="87.3428" x="42.5" y="320.9951">LOG: Logger</text><ellipse cx="33.5" cy="333.9453" fill="none" rx="3" ry="3" style="stroke:#038048;stroke-width:1;"/><text fill="#000000" font-family="sans-serif" font-size="14" lengthAdjust="spacing" textLength="328.6855" x="42.5" y="337.292">{static final} AUTHORIZATION_HEADER: String</text><rect fill="none" height="6" style="stroke:#C82930;stroke-width:1;" width="6" x="30.5" y="347.2422"/><text fill="#000000" font-family="sans-serif" font-size="14" lengthAdjust="spacing" textLength="207.915" x="42.5" y="353.5889">tokenProvider: TokenProvider</text><line style="stroke:#181818;stroke-width:0.5;" x1="23.5" x2="468.2725" y1="360.8906" y2="360.8906"/><ellipse cx="33.5" cy="374.5391" fill="#84BE84" rx="3" ry="3" style="stroke:#038048;stroke-width:1;"/><text fill="#000000" font-family="sans-serif" font-size="14" lengthAdjust="spacing" textLength="174.043" x="42.5" y="377.8857">JWTFilter(TokenProvider)</text><ellipse cx="33.5" cy="390.8359" fill="#84BE84" rx="3" ry="3" style="stroke:#038048;stroke-width:1;"/><text fill="#000000" font-family="sans-serif" font-size="14" lengthAdjust="spacing" textLength="420.7725" x="42.5" y="394.1826">doFilter(ServletRequest, ServletResponse, FilterChain): void</text><rect fill="#F24D5C" height="6" style="stroke:#C82930;stroke-width:1;" width="6" x="30.5" y="404.1328"/><text fill="#000000" font-family="sans-serif" font-size="14" lengthAdjust="spacing" textLength="293.0225" x="42.5" y="410.4795">resolveToken(HttpServletRequest): String</text></g><!--class JWTConfigurer--><g class="entity" data-entity="JWTConfigurer" data-source-line="61" data-uid="ent0011" id="entity_JWTConfigurer"><rect fill="#F1F1F1" height="96.8906" rx="2.5" ry="2.5" style="stroke:#181818;stroke-width:0.5;" width="238.2695" x="1833" y="296.5"/><ellipse cx="1897.6646" cy="312.5" fill="#ADD1B2" rx="11" ry="11" style="stroke:#181818;stroke-width:1;"/><path d="M1900.6333,318.1406 Q1900.0552,318.4375 1899.4146,318.5781 Q1898.7739,318.7344 1898.0708,318.7344 Q1895.5708,318.7344 1894.2427,317.0938 Q1892.9302,315.4375 1892.9302,312.3125 Q1892.9302,309.1875 1894.2427,307.5313 Q1895.5708,305.875 1898.0708,305.875 Q1898.7739,305.875 1899.4146,306.0313 Q1900.0708,306.1875 1900.6333,306.4844 L1900.6333,309.2031 Q1900.0083,308.625 1899.4146,308.3594 Q1898.8208,308.0781 1898.1958,308.0781 Q1896.8521,308.0781 1896.1646,309.1563 Q1895.4771,310.2188 1895.4771,312.3125 Q1895.4771,314.4063 1896.1646,315.4844 Q1896.8521,316.5469 1898.1958,316.5469 Q1898.8208,316.5469 1899.4146,316.2813 Q1900.0083,316 1900.6333,315.4219 L1900.6333,318.1406 Z " fill="#000000"/><text fill="#000000" font-family="sans-serif" font-size="14" lengthAdjust="spacing" textLength="100.4404" x="1918.1646" y="317.3467">JWTConfigurer</text><line style="stroke:#181818;stroke-width:0.5;" x1="1834" x2="2070.2695" y1="328.5" y2="328.5"/><rect fill="none" height="6" style="stroke:#C82930;stroke-width:1;" width="6" x="1841" y="339.1484"/><text fill="#000000" font-family="sans-serif" font-size="14" lengthAdjust="spacing" textLength="207.915" x="1853" y="345.4951">tokenProvider: TokenProvider</text><line style="stroke:#181818;stroke-width:0.5;" x1="1834" x2="2070.2695" y1="352.7969" y2="352.7969"/><ellipse cx="1844" cy="366.4453" fill="#84BE84" rx="3" ry="3" style="stroke:#038048;stroke-width:1;"/><text fill="#000000" font-family="sans-serif" font-size="14" lengthAdjust="spacing" textLength="212.2695" x="1853" y="369.792">JWTConfigurer(TokenProvider)</text><ellipse cx="1844" cy="382.7422" fill="#84BE84" rx="3" ry="3" style="stroke:#038048;stroke-width:1;"/><text fill="#000000" font-family="sans-serif" font-size="14" lengthAdjust="spacing" textLength="203.6836" x="1853" y="386.0889">configure(HttpSecurity): void</text></g><!--class DatabaseConfig--><g class="entity" data-entity="DatabaseConfig" data-source-line="71" data-uid="ent0013" id="entity_DatabaseConfig"><rect fill="#F1F1F1" height="105.1563" rx="2.5" ry="2.5" style="stroke:#181818;stroke-width:0.5;" width="291.7881" x="2556" y="65.5"/><ellipse cx="2641.7842" cy="85.6328" fill="#ADD1B2" rx="11" ry="11" style="stroke:#181818;stroke-width:1;"/><path d="M2644.7529,91.2734 Q2644.1748,91.5703 2643.5342,91.7109 Q2642.8936,91.8672 2642.1904,91.8672 Q2639.6904,91.8672 2638.3623,90.2266 Q2637.0498,88.5703 2637.0498,85.4453 Q2637.0498,82.3203 2638.3623,80.6641 Q2639.6904,79.0078 2642.1904,79.0078 Q2642.8936,79.0078 2643.5342,79.1641 Q2644.1904,79.3203 2644.7529,79.6172 L2644.7529,82.3359 Q2644.1279,81.7578 2643.5342,81.4922 Q2642.9404,81.2109 2642.3154,81.2109 Q2640.9717,81.2109 2640.2842,82.2891 Q2639.5967,83.3516 2639.5967,85.4453 Q2639.5967,87.5391 2640.2842,88.6172 Q2640.9717,89.6797 2642.3154,89.6797 Q2642.9404,89.6797 2643.5342,89.4141 Q2644.1279,89.1328 2644.7529,88.5547 L2644.7529,91.2734 Z " fill="#000000"/><text fill="#000000" font-family="sans-serif" font-size="12" font-style="italic" lengthAdjust="spacing" textLength="96.1934" x="2670.0474" y="81.6387">&#171;Configuration&#187;</text><text fill="#000000" font-family="sans-serif" font-size="14" lengthAdjust="spacing" textLength="111.7197" x="2662.2842" y="97.4639">DatabaseConfig</text><line style="stroke:#181818;stroke-width:0.5;" x1="2557" x2="2846.7881" y1="105.7656" y2="105.7656"/><rect fill="none" height="6" style="stroke:#C82930;stroke-width:1;" width="6" x="2564" y="116.4141"/><text fill="#000000" font-family="sans-serif" font-size="14" lengthAdjust="spacing" textLength="246.2168" x="2576" y="122.7607">basicDataSource: BasicDataSource</text><line style="stroke:#181818;stroke-width:0.5;" x1="2557" x2="2846.7881" y1="130.0625" y2="130.0625"/><ellipse cx="2567" cy="143.7109" fill="#84BE84" rx="3" ry="3" style="stroke:#038048;stroke-width:1;"/><text fill="#000000" font-family="sans-serif" font-size="14" lengthAdjust="spacing" textLength="265.7881" x="2576" y="147.0576">DatabaseConfig(String, String, String)</text><ellipse cx="2567" cy="160.0078" fill="#84BE84" rx="3" ry="3" style="stroke:#038048;stroke-width:1;"/><text fill="#000000" font-family="sans-serif" font-size="14" lengthAdjust="spacing" textLength="218.9004" x="2576" y="163.3545">dataSource(): BasicDataSource</text></g><!--class CorsConfig--><g class="entity" data-entity="CorsConfig" data-source-line="77" data-uid="ent0014" id="entity_CorsConfig"><rect fill="#F1F1F1" height="72.5625" rx="2.5" ry="2.5" style="stroke:#181818;stroke-width:0.5;" width="393.4658" x="2127.5" y="81.5"/><ellipse cx="2273.8862" cy="101.6328" fill="#ADD1B2" rx="11" ry="11" style="stroke:#181818;stroke-width:1;"/><path d="M2276.855,107.2734 Q2276.2769,107.5703 2275.6362,107.7109 Q2274.9956,107.8672 2274.2925,107.8672 Q2271.7925,107.8672 2270.4644,106.2266 Q2269.1519,104.5703 2269.1519,101.4453 Q2269.1519,98.3203 2270.4644,96.6641 Q2271.7925,95.0078 2274.2925,95.0078 Q2274.9956,95.0078 2275.6362,95.1641 Q2276.2925,95.3203 2276.855,95.6172 L2276.855,98.3359 Q2276.23,97.7578 2275.6362,97.4922 Q2275.0425,97.2109 2274.4175,97.2109 Q2273.0737,97.2109 2272.3862,98.2891 Q2271.6987,99.3516 2271.6987,101.4453 Q2271.6987,103.5391 2272.3862,104.6172 Q2273.0737,105.6797 2274.4175,105.6797 Q2275.0425,105.6797 2275.6362,105.4141 Q2276.23,105.1328 2276.855,104.5547 L2276.855,107.2734 Z " fill="#000000"/><text fill="#000000" font-family="sans-serif" font-size="12" font-style="italic" lengthAdjust="spacing" textLength="96.1934" x="2292.3862" y="97.6387">&#171;Configuration&#187;</text><text fill="#000000" font-family="sans-serif" font-size="14" lengthAdjust="spacing" textLength="76.3096" x="2302.3281" y="113.4639">CorsConfig</text><line style="stroke:#181818;stroke-width:0.5;" x1="2128.5" x2="2519.9658" y1="121.7656" y2="121.7656"/><line style="stroke:#181818;stroke-width:0.5;" x1="2128.5" x2="2519.9658" y1="129.7656" y2="129.7656"/><ellipse cx="2138.5" cy="143.4141" fill="#84BE84" rx="3" ry="3" style="stroke:#038048;stroke-width:1;"/><text fill="#000000" font-family="sans-serif" font-size="14" lengthAdjust="spacing" textLength="367.4658" x="2147.5" y="146.7607">corsConfigurationSource(): CorsConfigurationSource</text></g><!--class UserDao--><g class="entity" data-entity="UserDao" data-source-line="89" data-uid="ent0019" id="entity_UserDao"><rect fill="#F1F1F1" height="48" rx="2.5" ry="2.5" style="stroke:#181818;stroke-width:0.5;" width="91.835" x="2106" y="321"/><ellipse cx="2121" cy="337" fill="#ADD1B2" rx="11" ry="11" style="stroke:#181818;stroke-width:1;"/><path d="M2123.9688,342.6406 Q2123.3906,342.9375 2122.75,343.0781 Q2122.1094,343.2344 2121.4063,343.2344 Q2118.9063,343.2344 2117.5781,341.5938 Q2116.2656,339.9375 2116.2656,336.8125 Q2116.2656,333.6875 2117.5781,332.0313 Q2118.9063,330.375 2121.4063,330.375 Q2122.1094,330.375 2122.75,330.5313 Q2123.4063,330.6875 2123.9688,330.9844 L2123.9688,333.7031 Q2123.3438,333.125 2122.75,332.8594 Q2122.1563,332.5781 2121.5313,332.5781 Q2120.1875,332.5781 2119.5,333.6563 Q2118.8125,334.7188 2118.8125,336.8125 Q2118.8125,338.9063 2119.5,339.9844 Q2120.1875,341.0469 2121.5313,341.0469 Q2122.1563,341.0469 2122.75,340.7813 Q2123.3438,340.5 2123.9688,339.9219 L2123.9688,342.6406 Z " fill="#000000"/><text fill="#000000" font-family="sans-serif" font-size="14" lengthAdjust="spacing" textLength="59.835" x="2135" y="341.8467">UserDao</text><line style="stroke:#181818;stroke-width:0.5;" x1="2107" x2="2196.835" y1="353" y2="353"/><line style="stroke:#181818;stroke-width:0.5;" x1="2107" x2="2196.835" y1="361" y2="361"/></g><!--class MySqlDaoBase--><g class="entity" data-entity="MySqlDaoBase" data-source-line="95" data-uid="ent0023" id="entity_MySqlDaoBase"><rect fill="#F1F1F1" height="48" rx="2.5" ry="2.5" style="stroke:#181818;stroke-width:0.5;" width="136.043" x="2634" y="321"/><ellipse cx="2649" cy="337" fill="#ADD1B2" rx="11" ry="11" style="stroke:#181818;stroke-width:1;"/><path d="M2651.9688,342.6406 Q2651.3906,342.9375 2650.75,343.0781 Q2650.1094,343.2344 2649.4063,343.2344 Q2646.9063,343.2344 2645.5781,341.5938 Q2644.2656,339.9375 2644.2656,336.8125 Q2644.2656,333.6875 2645.5781,332.0313 Q2646.9063,330.375 2649.4063,330.375 Q2650.1094,330.375 2650.75,330.5313 Q2651.4063,330.6875 2651.9688,330.9844 L2651.9688,333.7031 Q2651.3438,333.125 2650.75,332.8594 Q2650.1563,332.5781 2649.5313,332.5781 Q2648.1875,332.5781 2647.5,333.6563 Q2646.8125,334.7188 2646.8125,336.8125 Q2646.8125,338.9063 2647.5,339.9844 Q2648.1875,341.0469 2649.5313,341.0469 Q2650.1563,341.0469 2650.75,340.7813 Q2651.3438,340.5 2651.9688,339.9219 L2651.9688,342.6406 Z " fill="#000000"/><text fill="#000000" font-family="sans-serif" font-size="14" lengthAdjust="spacing" textLength="104.043" x="2663" y="341.8467">MySqlDaoBase</text><line style="stroke:#181818;stroke-width:0.5;" x1="2635" x2="2769.043" y1="353" y2="353"/><line style="stroke:#181818;stroke-width:0.5;" x1="2635" x2="2769.043" y1="361" y2="361"/></g><!--link WebSecurityConfig to TokenProvider--><g class="link" data-entity-1="WebSecurityConfig" data-entity-2="TokenProvider" data-source-line="84" data-uid="lnk15" id="link_WebSecurityConfig_TokenProvider"><path codeLine="84" d="M1689.41,195.18 C1723.65,215.12 1754.49,240.27 1778,272 C1801.64,303.91 1804.7638,394.6017 1802.8938,472.6217" fill="none" id="WebSecurityConfig-to-TokenProvider" style="stroke:#181818;stroke-width:1;"/><polygon fill="#181818" points="1802.75,478.62,1806.9645,469.7184,1802.8698,473.6214,1798.9668,469.5267,1802.75,478.62" style="stroke:#181818;stroke-width:1;"/></g><!--link WebSecurityConfig to JwtAuthenticationEntryPoint--><g class="link" data-entity-1="WebSecurityConfig" data-entity-2="JwtAuthenticationEntryPoint" data-source-line="85" data-uid="lnk16" id="link_WebSecurityConfig_JwtAuthenticationEntryPoint"><path codeLine="85" d="M1393.42,195.17 C1407.19,233.42 1421.1879,272.2946 1432.0979,302.6046" fill="none" id="WebSecurityConfig-to-JwtAuthenticationEntryPoint" style="stroke:#181818;stroke-width:1;"/><polygon fill="#181818" points="1434.13,308.25,1434.8455,298.4272,1432.4366,303.5455,1427.3183,301.1366,1434.13,308.25" style="stroke:#181818;stroke-width:1;"/></g><!--link WebSecurityConfig to JwtAccessDeniedHandler--><g class="link" data-entity-1="WebSecurityConfig" data-entity-2="JwtAccessDeniedHandler" data-source-line="86" data-uid="lnk17" id="link_WebSecurityConfig_JwtAccessDeniedHandler"><path codeLine="86" d="M1175.11,195.02 C1078.88,233.34 972.3043,275.7804 896.0843,306.1304" fill="none" id="WebSecurityConfig-to-JwtAccessDeniedHandler" style="stroke:#181818;stroke-width:1;"/><polygon fill="#181818" points="890.51,308.35,900.3513,308.7368,895.1553,306.5003,897.3917,301.3043,890.51,308.35" style="stroke:#181818;stroke-width:1;"/></g><!--link WebSecurityConfig to JWTConfigurer--><g class="link" data-entity-1="WebSecurityConfig" data-entity-2="JWTConfigurer" data-source-line="87" data-uid="lnk18" id="link_WebSecurityConfig_JWTConfigurer"><path codeLine="87" d="M1696.12,193.49 C1750.14,206.81 1792.89,218.5 1806,225 C1842.48,243.08 1873.5886,267.6639 1900.4586,292.3139" fill="none" id="WebSecurityConfig-to-JWTConfigurer" style="stroke:#181818;stroke-width:1;"/><polygon fill="#181818" points="1904.88,296.37,1900.952,287.3383,1901.1955,292.9899,1895.5439,293.2335,1904.88,296.37" style="stroke:#181818;stroke-width:1;"/></g><!--link UserModelDetailsService to UserDao--><g class="link" data-entity-1="UserModelDetailsService" data-entity-2="UserDao" data-source-line="89" data-uid="lnk20" id="link_UserModelDetailsService_UserDao"><path codeLine="89" d="M1989.4,187.27 C2021.07,212.86 2056.46,242.83 2087,272 C2103.2,287.47 2116.1937,301.7544 2128.7037,316.2744" fill="none" id="UserModelDetailsService-to-UserDao" style="stroke:#181818;stroke-width:1;"/><polygon fill="#181818" points="2132.62,320.82,2129.7759,311.3907,2129.3564,317.032,2123.7151,316.6125,2132.62,320.82" style="stroke:#181818;stroke-width:1;"/></g><!--link JWTFilter to TokenProvider--><g class="link" data-entity-1="JWTFilter" data-entity-2="TokenProvider" data-source-line="91" data-uid="lnk21" id="link_JWTFilter_TokenProvider"><path codeLine="91" d="M469.54,414.12 C475.41,415.48 481.23,416.77 487,418 C890.48,503.79 1367.7318,552.1891 1619.4318,573.6991" fill="none" id="JWTFilter-to-TokenProvider" style="stroke:#181818;stroke-width:1;"/><polygon fill="#181818" points="1625.41,574.21,1616.7833,569.4582,1620.4282,573.7843,1616.1021,577.4291,1625.41,574.21" style="stroke:#181818;stroke-width:1;"/></g><!--link JWTConfigurer to TokenProvider--><g class="link" data-entity-1="JWTConfigurer" data-entity-2="TokenProvider" data-source-line="92" data-uid="lnk22" id="link_JWTConfigurer_TokenProvider"><path codeLine="92" d="M1921.38,393.71 C1905.67,418.18 1889.1019,444.0112 1869.9219,473.8812" fill="none" id="JWTConfigurer-to-TokenProvider" style="stroke:#181818;stroke-width:1;"/><polygon fill="#181818" points="1866.68,478.93,1874.9087,473.5181,1869.3816,474.7227,1868.177,469.1956,1866.68,478.93" style="stroke:#181818;stroke-width:1;"/></g><!--link DatabaseConfig to MySqlDaoBase--><g class="link" data-entity-1="DatabaseConfig" data-entity-2="MySqlDaoBase" data-source-line="95" data-uid="lnk24" id="link_DatabaseConfig_MySqlDaoBase"><path codeLine="95" d="M2702,170.62 C2702,217.85 2702,279.55 2702,314.75" fill="none" id="DatabaseConfig-to-MySqlDaoBase" style="stroke:#181818;stroke-width:1;"/><polygon fill="#181818" points="2702,320.75,2706,311.75,2702,315.75,2698,311.75,2702,320.75" style="stroke:#181818;stroke-width:1;"/><text fill="#000000" font-family="sans-serif" font-size="13" lengthAdjust="spacing" textLength="135.9858" x="2703" y="238.0669">provides DataSource</text></g><!--SRC=[bLRRRk8m47tFLrZxqbJ03qGL4WLseJUgXcwr-rAvpZJrDjYfO-YYgl- -uv04EnVAyW31dZbpvfev8I6mjU9wIwxe5fINKlPAOo3VtFDlvCCZ-649pJBo04_bzLYAPnwJixFTmrfHpQKO3WjvynaGBLz1t2gvuH6eW2pjlvROdtSzMkiN49gp76OgjDhUIYvqG2wwBsiGZ46MJK1mY6PKH8anUT5wNYdscYxv3il-8Vlz3lXJ2p_5kBrB5Kq5auZddmRarZsoXBE2oNUUQ53Z5yg5FzCwBHcYSjWKoG4-FIjFznceQyHE9g0fJx8Gr8OpoBErIgL0PsgPIcGSa2iPnqvYreWpeJB80V71ejfXmYyaxH0aaaRc-7nhlWLTWHzgnKLyMW3l42oxJ07L4AP6g7JOI1Pw_Lojq6vwNsbeH4MVpI_-hNdyaMbC9_iaLuiVBQux8BxjJgKOWnwlbS9WLduXfqLgYeGcPpkkmoQ_zgBfJ4wFlEGIHIMeJGBw3jxMa641EcSPQcVG9pRwz2-3d15IsqWUjTFfAF03d9XShK2m_s7b6lcIbmdgZSHGQRx1QjXxqfP6yimnvf_OGOhJv2Ue30NlvvC0gq_4jRfjHIrhiad46GY7UoWsCwTHIpMEe_lbR74tNywduUFbz1VsT6xPKi0ve42tNEG3TSbN8DUwvjg0lC8s89UmjRnrg5VTO_JiYgRFE4fGAWMbEM0hQz_EIf7ml2TpGDzDPPyyIPa0DQciCUwP9d6bzxtldbiw6vhmg39MoHTMMYhuORaRXyStUAyZARz7o_dYvd4s7KscTrq9-EgDrjipSjycTj0ZMKZKcwVHEDQehwTbG1HaCjaKeMhsefkIUjJATtSjSiSxkGVeTfILClLNcTNsICmx8SugKTzBd4jtBPbGJPze1aVj92Z8cT48vLen2CYvUs0nTt6hzd5_dPnMAAQ1se2T38oboexWR49O2XRtUoFZzYidhjLADu4KH8HZ6xlSQovpWy6mbknscKChMRT6onhM8MpNbUTrBJD6jDnBlFq8Q3hX5dhplb5vJfXgnMNKhxVXMu9cCS500fBkW7Prk0l_Fm00]--></g></svg>